<?xml version="1.0" encoding="UTF-8" standalone="no"?><svg width="192" height="168" viewBox="0 0 192 168" xmlns="http://www.w3.org/2000/svg" xmlns:xlink="http://www.w3.org/1999/xlink"><svg width="24" height="24" viewBox="0 0 24 24" id="bold" x="24"><title>Group</title><g transform="translate(-230 -270)" fill="none" fill-rule="evenodd"><path d="M241.763 282.352l-1.606-.01v3.329l1.688.04c1.195 0 1.793-.592 1.793-1.775-.054-1.024-.679-1.552-1.875-1.584m-.232-3.987h-1.374v2.599h1.374c1.065-.027 1.61-.481 1.637-1.361-.027-.825-.572-1.238-1.637-1.238m.829 8.618H238V277h4.126c2.031.065 3.11.86 3.235 2.386-.032 1.266-.688 2.045-1.969 2.337v.049c1.469.26 2.265 1.056 2.391 2.386 0 1.884-1.142 2.825-3.423 2.825" fill="#959FB2"/></g></svg><svg width="24" height="24" viewBox="0 0 24 24" id="bold_hover" x="120"><title>Group</title><g transform="translate(-230 -329)" fill="none" fill-rule="evenodd"><path d="M241.763 341.352l-1.606-.01v3.329l1.688.04c1.195 0 1.793-.592 1.793-1.775-.054-1.024-.679-1.552-1.875-1.584m-.232-3.987h-1.374v2.599h1.374c1.065-.027 1.61-.481 1.637-1.361-.027-.825-.572-1.238-1.637-1.238m.829 8.618H238V336h4.126c2.031.065 3.11.86 3.235 2.386-.032 1.266-.688 2.045-1.969 2.337v.049c1.469.26 2.265 1.056 2.391 2.386 0 1.884-1.142 2.825-3.423 2.825" fill="#398DEE"/></g></svg><svg width="24" height="24" viewBox="0 0 24 24" id="checked" y="24"><title>Group Copy 26</title><g transform="translate(-634 -270)" fill="none" fill-rule="evenodd"><g transform="translate(641 276)" fill="#959FB0"><path d="M9 1H.83a.835.835 0 0 0-.83.835v8.33A.84.84 0 0 0 .835 11h8.33c.455 0 .835-.37.835-.825V7.01H9v3.165c0-.103.074-.175.165-.175H.835c.094 0 .165.071.165.165v-8.33A.165.165 0 0 1 .83 2H9V1z"/><g transform="rotate(-45 8.04 .904)"><path d="M1.201.201v4h-1v-4z"/><path d="M.201 3.201h7v1h-7z"/></g></g></g></svg><svg width="24" height="24" viewBox="0 0 24 24" id="checked_hover" x="24" y="24"><title>Group Copy 26</title><g transform="translate(-634 -329)" fill="none" fill-rule="evenodd"><g transform="translate(641 335)" fill="#398DEE"><path d="M9 1H.83a.835.835 0 0 0-.83.835v8.33A.84.84 0 0 0 .835 11h8.33c.455 0 .835-.37.835-.825V7.01H9v3.165c0-.103.074-.175.165-.175H.835c.094 0 .165.071.165.165v-8.33A.165.165 0 0 1 .83 2H9V1z"/><g transform="rotate(-45 8.04 .904)"><path d="M1.201.201v4h-1v-4z"/><path d="M.201 3.201h7v1h-7z"/></g></g></g></svg><svg width="24" height="24" viewBox="0 0 24 24" id="code" x="48"><title>Group Copy 30</title><g transform="translate(-716 -270)" fill="none" fill-rule="evenodd"><g transform="translate(720 277)" fill="#959FB0"><path d="M3.758 1.15L.153 4.647a.489.489 0 0 0 0 .706L3.758 8.85l.728-.707L1.246 5l3.24-3.143-.728-.707zM13.242 1.15l-.728.707L15.754 5l-3.24 3.143.728.707 3.605-3.497a.489.489 0 0 0 0-.706L13.242 1.15zM9.69.336L6.342 9.32l.968.344L10.658.68 9.69.336z"/></g></g></svg><svg width="24" height="24" viewBox="0 0 24 24" id="code_hover" x="48" y="24"><title>Group Copy 30</title><g transform="translate(-716 -329)" fill="none" fill-rule="evenodd"><g transform="translate(720 336)" fill="#398DEE"><path d="M3.758 1.15L.153 4.647a.489.489 0 0 0 0 .706L3.758 8.85l.728-.707L1.246 5l3.24-3.143-.728-.707zM13.242 1.15l-.728.707L15.754 5l-3.24 3.143.728.707 3.605-3.497a.489.489 0 0 0 0-.706L13.242 1.15zM9.69.336L6.342 9.32l.968.344L10.658.68 9.69.336z"/></g></g></svg><svg width="24" height="24" viewBox="0 0 24 24" id="flow" y="48"><title>Group Copy 34</title><g transform="translate(-798 -270)" fill="none" fill-rule="evenodd"><g transform="translate(804 279)" fill="#959FB0"><path d="M0 2h10v2H0z"/><path d="M9 6V0l4 3-4 3z"/></g></g></svg><svg width="24" height="24" viewBox="0 0 24 24" id="flow_hover" x="24" y="48"><title>Group Copy 34</title><g transform="translate(-798 -329)" fill="none" fill-rule="evenodd"><g transform="translate(804 338)" fill="#398DEE"><path d="M0 2h10v2H0z"/><path d="M9 6V0l4 3-4 3z"/></g></g></svg><svg width="24" height="24" viewBox="0 0 24 24" id="formula" x="48" y="48"><title>Slice 1</title><g transform="translate(7 6)" fill="none" fill-rule="evenodd"><path d="M11.822 3.315L11.755 4H9.32l.067-.643c.9-.502 1.35-1.005 1.35-1.51 0-.42-.29-.631-.873-.631-.156 0-.321.015-.496.045l.06-.595c.186-.047.45-.07.791-.07.435 0 .767.092.995.278.229.185.343.438.343.758 0 .401-.149.746-.447 1.034a3.316 3.316 0 0 1-.945.656v.041c.471 0 1.024-.016 1.657-.048z" fill="#398DEE"/><g transform="translate(.277 2)" fill="#959FB2"><path d="M6.106 0L0 8.723h1.745L7.85 0H6.106z"/><path d="M.218 0l6.106 8.723H8.07L1.963 0H.218z"/></g></g></svg><svg width="24" height="24" viewBox="0 0 24 24" id="formula_hover" x="72"><title>Slice 2</title><g transform="translate(7 6)" fill="#398DEE" fill-rule="evenodd"><path d="M11.822 3.315L11.755 4H9.32l.067-.643c.9-.502 1.35-1.005 1.35-1.51 0-.42-.29-.631-.873-.631-.156 0-.321.015-.496.045l.06-.595c.186-.047.45-.07.791-.07.435 0 .767.092.995.278.229.185.343.438.343.758 0 .401-.149.746-.447 1.034a3.316 3.316 0 0 1-.945.656v.041c.471 0 1.024-.016 1.657-.048z"/><g transform="translate(.277 2)"><path d="M6.106 0L0 8.723h1.745L7.85 0H6.106z"/><path d="M.218 0l6.106 8.723H8.07L1.963 0H.218z"/></g></g></svg><svg width="24" height="24" viewBox="0 0 24 24" id="gantt" x="72" y="24"><title>Group Copy 36</title><g transform="translate(-846 -270)" fill="none" fill-rule="evenodd"><g transform="translate(852 277)"><g transform="rotate(-180 6.5 5)" fill="#959FB0"><path d="M0 8h13v1H0zM0 0h13v1H0zM0 4h13v1H0z"/></g><path fill="#5A9AF8" d="M10 0h1v3h-1zM2 4h1v3H2zM10 8h1v3h-1z"/></g></g></svg><svg width="24" height="24" viewBox="0 0 24 24" id="gantt_hover" x="72" y="48"><title>Group Copy 36</title><g transform="translate(-846 -329)" fill="none" fill-rule="evenodd"><g transform="translate(852 336)"><g transform="rotate(-180 6.5 5)" fill="#398DEE"><path d="M0 8h13v1H0zM0 0h13v1H0zM0 4h13v1H0z"/></g><path fill="#5A9AF8" d="M10 0h1v3h-1zM2 4h1v3H2zM10 8h1v3h-1z"/></g></g></svg><svg width="24" height="24" viewBox="0 0 24 24" id="heading1" y="72"><title>Group Copy 14</title><g transform="translate(-360 -270)" fill="none" fill-rule="evenodd"><path d="M366.304 277v3.27c.275-.293.58-.49.916-.594a3.658 3.658 0 0 1 1.084-.156c.338 0 .649.054.932.162.284.108.529.257.733.446.205.19.364.412.477.67.112.256.169.535.169.837v4.878h-1.29v-4.709c0-.207-.036-.383-.105-.527a.997.997 0 0 0-.28-.355 1.104 1.104 0 0 0-.403-.2c-.15-.04-.305-.06-.463-.06-.211 0-.422.044-.631.132-.21.088-.4.208-.568.361a1.873 1.873 0 0 0-.412.54 1.45 1.45 0 0 0-.159.67v4.148H365V277h1.304zm9.372 9.513v-6.925a3.805 3.805 0 0 1-1.382.956c-.53.214-1.118.32-1.767.32v-1.229c.352 0 .675-.04.97-.122a3.49 3.49 0 0 0 .79-.317 2.85 2.85 0 0 0 .608-.453c.174-.171.319-.347.436-.527.117-.18.204-.358.26-.534.057-.175.085-.335.085-.48h1.27v9.311h-1.27z" fill="#959FB2"/></g></svg><svg width="24" height="24" viewBox="0 0 24 24" id="heading1_hover" x="24" y="72"><title>Group Copy 14</title><g transform="translate(-360 -329)" fill="none" fill-rule="evenodd"><path d="M366.304 336v3.27c.275-.293.58-.49.916-.594a3.658 3.658 0 0 1 1.084-.156c.338 0 .649.054.932.162.284.108.529.257.733.446.205.19.364.412.477.67.112.256.169.535.169.837v4.878h-1.29v-4.709c0-.207-.036-.383-.105-.527a.997.997 0 0 0-.28-.355 1.104 1.104 0 0 0-.403-.2c-.15-.04-.305-.06-.463-.06-.211 0-.422.044-.631.132-.21.088-.4.208-.568.361a1.873 1.873 0 0 0-.412.54 1.45 1.45 0 0 0-.159.67v4.148H365V336h1.304zm9.372 9.513v-6.925a3.805 3.805 0 0 1-1.382.956c-.53.214-1.118.32-1.767.32v-1.229c.352 0 .675-.04.97-.122a3.49 3.49 0 0 0 .79-.317 2.85 2.85 0 0 0 .608-.453c.174-.171.319-.347.436-.527.117-.18.204-.358.26-.534.057-.175.085-.335.085-.48h1.27v9.311h-1.27z" fill="#398DEE"/></g></svg><svg width="24" height="24" viewBox="0 0 24 24" id="heading2" x="48" y="72"><title>Group Copy 15</title><g transform="translate(-384 -270)" fill="none" fill-rule="evenodd"><path d="M390.304 277v3.27c.275-.293.58-.49.916-.594a3.658 3.658 0 0 1 1.084-.156c.338 0 .649.054.932.162.284.108.529.257.733.446.205.19.364.412.477.67.112.256.169.535.169.837v4.878h-1.29v-4.709c0-.207-.036-.383-.105-.527a.997.997 0 0 0-.28-.355 1.104 1.104 0 0 0-.403-.2c-.15-.04-.305-.06-.463-.06-.211 0-.422.044-.631.132-.21.088-.4.208-.568.361a1.873 1.873 0 0 0-.412.54 1.45 1.45 0 0 0-.159.67v4.148H389V277h1.304zm5.595 3.203c.05-.455.162-.867.338-1.237.175-.37.404-.684.685-.946.282-.261.612-.463.99-.604a3.534 3.534 0 0 1 1.25-.213c.478 0 .899.074 1.264.223.365.148.67.345.919.59.247.246.433.528.557.845.124.318.186.646.186.984 0 .378-.056.717-.17 1.016-.112.3-.261.572-.448.818a3.956 3.956 0 0 1-.649.669c-.245.2-.503.39-.774.57-.27.181-.541.358-.814.531-.272.174-.53.353-.77.537a5.016 5.016 0 0 0-.652.595 2.408 2.408 0 0 0-.453.71h4.73v1.222h-6.162v-1.04c0-.325.07-.62.21-.889.139-.268.322-.518.55-.75.227-.232.486-.449.777-.652.29-.202.588-.4.892-.59.304-.192.601-.383.892-.572.29-.189.548-.387.773-.594.226-.208.408-.427.548-.66.14-.231.21-.485.21-.76 0-.288-.043-.541-.126-.76a1.535 1.535 0 0 0-.345-.547 1.402 1.402 0 0 0-.513-.327 1.816 1.816 0 0 0-.632-.109c-.27 0-.518.044-.743.132a1.69 1.69 0 0 0-.588.382c-.166.167-.298.37-.395.611a2.586 2.586 0 0 0-.172.815h-1.365z" fill="#959FB2"/></g></svg><svg width="24" height="24" viewBox="0 0 24 24" id="heading2_hover" x="72" y="72"><title>Group Copy 15</title><g transform="translate(-384 -329)" fill="none" fill-rule="evenodd"><path d="M390.304 336v3.27c.275-.293.58-.49.916-.594a3.658 3.658 0 0 1 1.084-.156c.338 0 .649.054.932.162.284.108.529.257.733.446.205.19.364.412.477.67.112.256.169.535.169.837v4.878h-1.29v-4.709c0-.207-.036-.383-.105-.527a.997.997 0 0 0-.28-.355 1.104 1.104 0 0 0-.403-.2c-.15-.04-.305-.06-.463-.06-.211 0-.422.044-.631.132-.21.088-.4.208-.568.361a1.873 1.873 0 0 0-.412.54 1.45 1.45 0 0 0-.159.67v4.148H389V336h1.304zm5.595 3.203c.05-.455.162-.867.338-1.237.175-.37.404-.684.685-.946.282-.261.612-.463.99-.604a3.534 3.534 0 0 1 1.25-.213c.478 0 .899.074 1.264.223.365.148.67.345.919.59.247.246.433.528.557.845.124.318.186.646.186.984 0 .378-.056.717-.17 1.016-.112.3-.261.572-.448.818a3.956 3.956 0 0 1-.649.669c-.245.2-.503.39-.774.57-.27.181-.541.358-.814.531-.272.174-.53.353-.77.537a5.016 5.016 0 0 0-.652.595 2.408 2.408 0 0 0-.453.71h4.73v1.222h-6.162v-1.04c0-.325.07-.62.21-.889.139-.268.322-.518.55-.75.227-.232.486-.449.777-.652.29-.202.588-.4.892-.59.304-.192.601-.383.892-.572.29-.189.548-.387.773-.594.226-.208.408-.427.548-.66.14-.231.21-.485.21-.76 0-.288-.043-.541-.126-.76a1.535 1.535 0 0 0-.345-.547 1.402 1.402 0 0 0-.513-.327 1.816 1.816 0 0 0-.632-.109c-.27 0-.518.044-.743.132a1.69 1.69 0 0 0-.588.382c-.166.167-.298.37-.395.611a2.586 2.586 0 0 0-.172.815h-1.365z" fill="#398DEE"/></g></svg><svg width="24" height="24" viewBox="0 0 24 24" id="heading3" x="96"><title>Group Copy 16</title><g transform="translate(-408 -270)" fill="none" fill-rule="evenodd"><path d="M414.304 277v3.27c.275-.293.58-.49.916-.594a3.658 3.658 0 0 1 1.084-.156c.338 0 .649.054.932.162.284.108.529.257.733.446.205.19.364.412.477.67.112.256.169.535.169.837v4.878h-1.29v-4.709c0-.207-.036-.383-.105-.527a.997.997 0 0 0-.28-.355 1.104 1.104 0 0 0-.403-.2c-.15-.04-.305-.06-.463-.06-.211 0-.422.044-.631.132-.21.088-.4.208-.568.361a1.873 1.873 0 0 0-.412.54 1.45 1.45 0 0 0-.159.67v4.148H413V277h1.304zm5.71 3.06c.067-.373.176-.731.327-1.074.151-.342.35-.645.595-.908.245-.264.543-.473.892-.629.349-.155.753-.233 1.213-.233.428 0 .813.061 1.155.183.342.121.633.29.872.506.238.217.42.473.547.77.126.298.19.622.19.974 0 .405-.098.775-.291 1.111a2.508 2.508 0 0 1-.818.848c.234.104.446.227.635.372.19.144.35.31.483.5.133.189.236.404.308.645.072.24.108.51.108.807 0 .442-.084.831-.25 1.17-.167.337-.391.62-.673.847-.281.228-.609.4-.983.517-.373.117-.77.176-1.189.176-.441 0-.848-.069-1.22-.206a2.98 2.98 0 0 1-.986-.598 3.508 3.508 0 0 1-.73-.96 4.98 4.98 0 0 1-.456-1.29h1.365c.068.383.174.701.318.956.144.254.31.458.496.611.187.153.386.263.595.328.21.065.416.098.618.098.216 0 .432-.04.645-.118.214-.08.406-.19.575-.331.169-.142.306-.315.412-.517.106-.203.159-.43.159-.683 0-.243-.044-.47-.132-.679a1.592 1.592 0 0 0-.378-.547 1.806 1.806 0 0 0-.595-.368 2.14 2.14 0 0 0-.78-.135h-.75v-1.149h.75c.27 0 .498-.038.685-.115.187-.076.338-.177.453-.3.115-.124.198-.265.25-.423.052-.158.078-.32.078-.486 0-.455-.132-.811-.395-1.068-.264-.257-.62-.385-1.071-.385-.257 0-.483.052-.68.155a1.707 1.707 0 0 0-.506.406 1.983 1.983 0 0 0-.338.57 2.693 2.693 0 0 0-.166.653h-1.337z" fill="#959FB2"/></g></svg><svg width="24" height="24" viewBox="0 0 24 24" id="heading3_hover" x="96" y="24"><title>Group Copy 16</title><g transform="translate(-408 -329)" fill="none" fill-rule="evenodd"><path d="M414.304 336v3.27c.275-.293.58-.49.916-.594a3.658 3.658 0 0 1 1.084-.156c.338 0 .649.054.932.162.284.108.529.257.733.446.205.19.364.412.477.67.112.256.169.535.169.837v4.878h-1.29v-4.709c0-.207-.036-.383-.105-.527a.997.997 0 0 0-.28-.355 1.104 1.104 0 0 0-.403-.2c-.15-.04-.305-.06-.463-.06-.211 0-.422.044-.631.132-.21.088-.4.208-.568.361a1.873 1.873 0 0 0-.412.54 1.45 1.45 0 0 0-.159.67v4.148H413V336h1.304zm5.71 3.06c.067-.373.176-.731.327-1.074.151-.342.35-.645.595-.908.245-.264.543-.473.892-.629.349-.155.753-.233 1.213-.233.428 0 .813.061 1.155.183.342.121.633.29.872.506.238.217.42.473.547.77.126.298.19.622.19.974 0 .405-.098.775-.291 1.111a2.508 2.508 0 0 1-.818.848c.234.104.446.227.635.372.19.144.35.31.483.5.133.189.236.404.308.645.072.24.108.51.108.807 0 .442-.084.831-.25 1.17-.167.337-.391.62-.673.847-.281.228-.609.4-.983.517-.373.117-.77.176-1.189.176-.441 0-.848-.069-1.22-.206a2.98 2.98 0 0 1-.986-.598 3.508 3.508 0 0 1-.73-.96 4.98 4.98 0 0 1-.456-1.29h1.365c.068.383.174.701.318.956.144.254.31.458.496.611.187.153.386.263.595.328.21.065.416.098.618.098.216 0 .432-.04.645-.118.214-.08.406-.19.575-.331.169-.142.306-.315.412-.517.106-.203.159-.43.159-.683 0-.243-.044-.47-.132-.679a1.592 1.592 0 0 0-.378-.547 1.806 1.806 0 0 0-.595-.368 2.14 2.14 0 0 0-.78-.135h-.75v-1.149h.75c.27 0 .498-.038.685-.115.187-.076.338-.177.453-.3.115-.124.198-.265.25-.423.052-.158.078-.32.078-.486 0-.455-.132-.811-.395-1.068-.264-.257-.62-.385-1.071-.385-.257 0-.483.052-.68.155a1.707 1.707 0 0 0-.506.406 1.983 1.983 0 0 0-.338.57 2.693 2.693 0 0 0-.166.653h-1.337z" fill="#398DEE"/></g></svg><svg width="24" height="24" viewBox="0 0 24 24" id="heading4" x="96" y="48"><title>Group Copy 17</title><g transform="translate(-432 -270)" fill="none" fill-rule="evenodd"><path d="M438.304 277v3.27c.275-.293.58-.49.916-.594a3.658 3.658 0 0 1 1.084-.156c.338 0 .649.054.932.162.284.108.529.257.733.446.205.19.364.412.477.67.112.256.169.535.169.837v4.878h-1.29v-4.709c0-.207-.036-.383-.105-.527a.997.997 0 0 0-.28-.355 1.104 1.104 0 0 0-.403-.2c-.15-.04-.305-.06-.463-.06-.211 0-.422.044-.631.132-.21.088-.4.208-.568.361a1.873 1.873 0 0 0-.412.54 1.45 1.45 0 0 0-.159.67v4.148H437V277h1.304zm9.46 9.513v-2.23h-4.108v-1.29l4.114-5.669h1.257v5.906h1.31v1.054h-1.31v2.23h-1.263zm-2.838-3.283h2.838v-4l-2.838 4z" fill="#959FB2"/></g></svg><svg width="24" height="24" viewBox="0 0 24 24" id="heading4_hover" x="96" y="72"><title>Group Copy 17</title><g transform="translate(-432 -329)" fill="none" fill-rule="evenodd"><path d="M438.304 336v3.27c.275-.293.58-.49.916-.594a3.658 3.658 0 0 1 1.084-.156c.338 0 .649.054.932.162.284.108.529.257.733.446.205.19.364.412.477.67.112.256.169.535.169.837v4.878h-1.29v-4.709c0-.207-.036-.383-.105-.527a.997.997 0 0 0-.28-.355 1.104 1.104 0 0 0-.403-.2c-.15-.04-.305-.06-.463-.06-.211 0-.422.044-.631.132-.21.088-.4.208-.568.361a1.873 1.873 0 0 0-.412.54 1.45 1.45 0 0 0-.159.67v4.148H437V336h1.304zm9.46 9.513v-2.23h-4.108v-1.29l4.114-5.669h1.257v5.906h1.31v1.054h-1.31v2.23h-1.263zm-2.838-3.283h2.838v-4l-2.838 4z" fill="#398DEE"/></g></svg><svg width="24" height="24" viewBox="0 0 24 24" id="heading5" y="96"><title>Group Copy 18</title><g transform="translate(-456 -270)" fill="none" fill-rule="evenodd"><path d="M462.304 277v3.27c.275-.293.58-.49.916-.594a3.658 3.658 0 0 1 1.084-.156c.338 0 .649.054.932.162.284.108.529.257.733.446.205.19.364.412.477.67.112.256.169.535.169.837v4.878h-1.29v-4.709c0-.207-.036-.383-.105-.527a.997.997 0 0 0-.28-.355 1.104 1.104 0 0 0-.403-.2c-.15-.04-.305-.06-.463-.06-.211 0-.422.044-.631.132-.21.088-.4.208-.568.361a1.873 1.873 0 0 0-.412.54 1.45 1.45 0 0 0-.159.67v4.148H461V277h1.304zm5.716 5.27l.629-4.946h5.08v1.075h-4.033c-.013.13-.034.304-.06.52l-.092.733-.145 1.118c.166-.09.336-.162.51-.216a4.332 4.332 0 0 1 .922-.182c.126-.01.228-.014.304-.014.446 0 .858.082 1.237.247a3.026 3.026 0 0 1 1.625 1.672c.155.383.233.79.233 1.223 0 .4-.068.79-.203 1.165-.135.376-.339.71-.611 1.004a2.989 2.989 0 0 1-1.038.706c-.418.178-.912.267-1.48.267-.378 0-.736-.054-1.074-.162a2.834 2.834 0 0 1-.918-.494 3.14 3.14 0 0 1-.713-.824 3.931 3.931 0 0 1-.456-1.155h1.344c.077.252.178.476.304.672.126.196.27.36.433.493.162.133.336.234.523.304.187.07.378.105.571.105.275 0 .534-.053.777-.159.243-.106.456-.252.639-.44a2.129 2.129 0 0 0 .598-1.482c0-.302-.058-.579-.173-.831a2.068 2.068 0 0 0-1.1-1.068 1.929 1.929 0 0 0-1.19-.094c-.155.036-.307.09-.456.162-.149.072-.29.159-.426.26a2.062 2.062 0 0 0-.358.341h-1.203z" fill="#959FB2"/></g></svg><svg width="24" height="24" viewBox="0 0 24 24" id="heading5_hover" x="24" y="96"><title>Group Copy 18</title><g transform="translate(-456 -329)" fill="none" fill-rule="evenodd"><path d="M462.304 336v3.27c.275-.293.58-.49.916-.594a3.658 3.658 0 0 1 1.084-.156c.338 0 .649.054.932.162.284.108.529.257.733.446.205.19.364.412.477.67.112.256.169.535.169.837v4.878h-1.29v-4.709c0-.207-.036-.383-.105-.527a.997.997 0 0 0-.28-.355 1.104 1.104 0 0 0-.403-.2c-.15-.04-.305-.06-.463-.06-.211 0-.422.044-.631.132-.21.088-.4.208-.568.361a1.873 1.873 0 0 0-.412.54 1.45 1.45 0 0 0-.159.67v4.148H461V336h1.304zm5.716 5.27l.629-4.946h5.08v1.075h-4.033c-.013.13-.034.304-.06.52l-.092.733-.145 1.118c.166-.09.336-.162.51-.216a4.332 4.332 0 0 1 .922-.182c.126-.01.228-.014.304-.014.446 0 .858.082 1.237.247a3.026 3.026 0 0 1 1.625 1.672c.155.383.233.79.233 1.223 0 .4-.068.79-.203 1.165-.135.376-.339.71-.611 1.004a2.989 2.989 0 0 1-1.038.706c-.418.178-.912.267-1.48.267-.378 0-.736-.054-1.074-.162a2.834 2.834 0 0 1-.918-.494 3.14 3.14 0 0 1-.713-.824 3.931 3.931 0 0 1-.456-1.155h1.344c.077.252.178.476.304.672.126.196.27.36.433.493.162.133.336.234.523.304.187.07.378.105.571.105.275 0 .534-.053.777-.159.243-.106.456-.252.639-.44a2.129 2.129 0 0 0 .598-1.482c0-.302-.058-.579-.173-.831a2.068 2.068 0 0 0-1.1-1.068 1.929 1.929 0 0 0-1.19-.094c-.155.036-.307.09-.456.162-.149.072-.29.159-.426.26a2.062 2.062 0 0 0-.358.341h-1.203z" fill="#398DEE"/></g></svg><svg width="24" height="24" viewBox="0 0 24 24" id="heading6" x="48" y="96"><title>Group Copy 19</title><g transform="translate(-480 -270)" fill="none" fill-rule="evenodd"><path d="M486.304 277v3.27c.275-.293.58-.49.916-.594a3.658 3.658 0 0 1 1.084-.156c.338 0 .649.054.932.162.284.108.529.257.733.446.205.19.364.412.477.67.112.256.169.535.169.837v4.878h-1.29v-4.709c0-.207-.036-.383-.105-.527a.997.997 0 0 0-.28-.355 1.104 1.104 0 0 0-.403-.2c-.15-.04-.305-.06-.463-.06-.211 0-.422.044-.631.132-.21.088-.4.208-.568.361a1.873 1.873 0 0 0-.412.54 1.45 1.45 0 0 0-.159.67v4.148H485V277h1.304zm10.54 2.628a1.77 1.77 0 0 0-.524-.929 1.718 1.718 0 0 0-.479-.314 1.456 1.456 0 0 0-.598-.122c-.374 0-.691.096-.952.288-.262.191-.478.439-.649.743a3.86 3.86 0 0 0-.389 1.017 7.765 7.765 0 0 0-.179 1.108c.154-.19.321-.347.504-.473.182-.126.367-.226.554-.3.187-.075.37-.127.547-.156a3.117 3.117 0 0 1 1.733.196c.37.16.684.381.943.665.259.284.458.618.598 1.004.14.385.21.8.21 1.246 0 .41-.07.8-.207 1.17a2.793 2.793 0 0 1-1.53 1.628c-.37.162-.786.243-1.25.243a3.36 3.36 0 0 1-1.375-.274 2.802 2.802 0 0 1-1.054-.81c-.29-.359-.515-.805-.673-1.339-.157-.533-.236-1.152-.236-1.854 0-.892.08-1.662.24-2.311.16-.649.387-1.184.682-1.605.295-.42.65-.734 1.064-.939a3.097 3.097 0 0 1 1.392-.307c.42 0 .795.067 1.129.202a2.73 2.73 0 0 1 1.439 1.318c.148.293.25.595.304.905h-1.243zm-1.668 5.953c.238 0 .46-.052.665-.156.205-.103.383-.244.534-.422.151-.178.27-.387.355-.628.085-.241.128-.499.128-.774 0-.266-.04-.52-.121-.763a2.044 2.044 0 0 0-.345-.642 1.66 1.66 0 0 0-.537-.44 1.487 1.487 0 0 0-.693-.162 1.6 1.6 0 0 0-.784.183c-.22.122-.404.278-.55.47a2.02 2.02 0 0 0-.328.638 2.336 2.336 0 0 0-.108.69 2.12 2.12 0 0 0 .544 1.435c.164.178.354.318.567.419.214.101.439.152.673.152z" fill="#959FB2"/></g></svg><svg width="24" height="24" viewBox="0 0 24 24" id="heading6_hover" x="72" y="96"><title>Group Copy 19</title><g transform="translate(-480 -329)" fill="none" fill-rule="evenodd"><path d="M486.304 336v3.27c.275-.293.58-.49.916-.594a3.658 3.658 0 0 1 1.084-.156c.338 0 .649.054.932.162.284.108.529.257.733.446.205.19.364.412.477.67.112.256.169.535.169.837v4.878h-1.29v-4.709c0-.207-.036-.383-.105-.527a.997.997 0 0 0-.28-.355 1.104 1.104 0 0 0-.403-.2c-.15-.04-.305-.06-.463-.06-.211 0-.422.044-.631.132-.21.088-.4.208-.568.361a1.873 1.873 0 0 0-.412.54 1.45 1.45 0 0 0-.159.67v4.148H485V336h1.304zm10.54 2.628a1.77 1.77 0 0 0-.524-.929 1.718 1.718 0 0 0-.479-.314 1.456 1.456 0 0 0-.598-.122c-.374 0-.691.096-.952.288-.262.191-.478.439-.649.743a3.86 3.86 0 0 0-.389 1.017 7.765 7.765 0 0 0-.179 1.108c.154-.19.321-.347.504-.473.182-.126.367-.226.554-.3.187-.075.37-.127.547-.156a3.117 3.117 0 0 1 1.733.196c.37.16.684.381.943.665.259.284.458.618.598 1.004.14.385.21.8.21 1.246 0 .41-.07.8-.207 1.17a2.793 2.793 0 0 1-1.53 1.628c-.37.162-.786.243-1.25.243a3.36 3.36 0 0 1-1.375-.274 2.802 2.802 0 0 1-1.054-.81c-.29-.359-.515-.805-.673-1.339-.157-.533-.236-1.152-.236-1.854 0-.892.08-1.662.24-2.311.16-.649.387-1.184.682-1.605.295-.42.65-.734 1.064-.939a3.097 3.097 0 0 1 1.392-.307c.42 0 .795.067 1.129.202a2.73 2.73 0 0 1 1.439 1.318c.148.293.25.595.304.905h-1.243zm-1.668 5.953c.238 0 .46-.052.665-.156.205-.103.383-.244.534-.422.151-.178.27-.387.355-.628.085-.241.128-.499.128-.774 0-.266-.04-.52-.121-.763a2.044 2.044 0 0 0-.345-.642 1.66 1.66 0 0 0-.537-.44 1.487 1.487 0 0 0-.693-.162 1.6 1.6 0 0 0-.784.183c-.22.122-.404.278-.55.47a2.02 2.02 0 0 0-.328.638 2.336 2.336 0 0 0-.108.69 2.12 2.12 0 0 0 .544 1.435c.164.178.354.318.567.419.214.101.439.152.673.152z" fill="#398DEE"/></g></svg><svg width="7" height="9" viewBox="0 0 7 9" id="help" x="168" y="24"><title>？</title><path d="M3.632.264c-.888 0-1.584.252-2.1.756-.528.504-.78 1.2-.78 2.088H2.12c0-.504.096-.9.3-1.176.228-.336.6-.492 1.128-.492.408 0 .732.108.96.336.216.228.336.54.336.936 0 .3-.108.588-.324.852l-.144.168c-.78.696-1.248 1.2-1.404 1.524-.168.324-.24.72-.24 1.176V6.6h1.38v-.168c0-.288.06-.54.18-.78a1.86 1.86 0 0 1 .48-.6c.576-.504.924-.828 1.032-.948.288-.384.444-.876.444-1.476 0-.732-.24-1.308-.72-1.728C5.048.468 4.412.264 3.632.264zm-.216 6.924a.925.925 0 0 0-.66.252.842.842 0 0 0-.264.648c0 .264.084.48.264.648.18.168.396.264.66.264s.48-.084.66-.252a.878.878 0 0 0 .276-.66.886.886 0 0 0-.264-.648.954.954 0 0 0-.672-.252z" fill="#FFF" fill-rule="evenodd"/></svg><svg width="24" height="24" viewBox="0 0 24 24" id="hr"><title>Group Copy 21</title><g transform="translate(-514 -270)" fill="none" fill-rule="evenodd"><path d="M520 281h13v2h-13z" fill="#959FB0"/></g></svg><svg width="24" height="24" viewBox="0 0 24 24" id="hr_hover" x="120" y="24"><title>Group Copy 21</title><g transform="translate(-514 -329)" fill="none" fill-rule="evenodd"><path d="M520 340h13v2h-13z" fill="#398DEE"/></g></svg><svg width="24" height="24" viewBox="0 0 24 24" id="image" x="120" y="48"><title>Group Copy 29</title><g transform="translate(-692 -270)" fill="none" fill-rule="evenodd"><g transform="translate(698 277)" fill="#959FB0"><path d="M1 .995v8.01C1 8.996 1.004 9 .999 9H12L12 9.005V.995c0 .009-.004.005.001.005H1L1 .995zm-1 0C0 .445.447 0 .999 0H12c.552 0 .999.456.999.995v8.01c0 .55-.447.995-.999.995H1C.447 10 0 9.544 0 9.005V.995z"/><circle cx="4" cy="3" r="1"/><path d="M2.998 8c-.551 0-.691-.32-.304-.723l2.212-2.304c.383-.4.96-.354 1.283.096L7.4 6.75l1.364-2.842c.24-.502.59-.482.775.032l1.122 3.12c.187.519-.107.94-.659.94H2.998z"/></g></g></svg><svg width="24" height="24" viewBox="0 0 24 24" id="image_hover" x="120" y="72"><title>Group Copy 29</title><g transform="translate(-692 -329)" fill="none" fill-rule="evenodd"><g transform="translate(698 336)" fill="#398DEE"><path d="M1 .995v8.01C1 8.996 1.004 9 .999 9H12L12 9.005V.995c0 .009-.004.005.001.005H1L1 .995zm-1 0C0 .445.447 0 .999 0H12c.552 0 .999.456.999.995v8.01c0 .55-.447.995-.999.995H1C.447 10 0 9.544 0 9.005V.995z"/><circle cx="4" cy="3" r="1"/><path d="M2.998 8c-.551 0-.691-.32-.304-.723l2.212-2.304c.383-.4.96-.354 1.283.096L7.4 6.75l1.364-2.842c.24-.502.59-.482.775.032l1.122 3.12c.187.519-.107.94-.659.94H2.998z"/></g></g></svg><svg width="24" height="24" viewBox="0 0 24 24" id="italic" x="120" y="96"><title>Group Copy 9</title><g transform="translate(-254 -329)" fill="none" fill-rule="evenodd"><g transform="translate(262 335)" fill="#959FB2"><path d="M2 1h6v1H2zM0 10h6v1H0z"/><path d="M4.052 1.943l2.208-.514-2.313 8.633-2.207.509 2.312-8.628z"/></g></g></svg><svg width="24" height="24" viewBox="0 0 24 24" id="italic_hover" y="120"><title>Group Copy 9</title><g transform="translate(-254 -329)" fill="none" fill-rule="evenodd"><g transform="translate(262 335)" fill="#398DEE"><path d="M2 1h6v1H2zM0 10h6v1H0z"/><path d="M4.052 1.943l2.208-.514-2.313 8.633-2.207.509 2.312-8.628z"/></g></g></svg><svg width="24" height="24" viewBox="0 0 24 24" id="link" x="24" y="120"><title>Group Copy 28</title><g transform="translate(-668 -270)" fill="none" fill-rule="evenodd"><path d="M686.149 285.83h-3.474a1.544 1.544 0 0 1-1.544-1.543v-.386h1.158c0 .426.346.772.772.772h2.702a.772.772 0 0 0 .772-.772v-2.702a.772.772 0 0 0-.772-.772h-2.702a.772.772 0 0 0-.772.772h-1.158v-.386c0-.852.692-1.544 1.544-1.544h3.474c.852 0 1.544.692 1.544 1.545v3.473c0 .852-.692 1.544-1.544 1.544zm-9.824-3.74h8.202v1.025h-8.202v-1.025zm2.21-.89a.772.772 0 0 0-.773-.773h-2.701a.772.772 0 0 0-.772.772v2.702c0 .426.346.771.772.772h2.702a.772.772 0 0 0 .771-.772h1.158v.386c0 .853-.69 1.544-1.543 1.544h-3.474a1.544 1.544 0 0 1-1.544-1.544v-3.474c0-.852.691-1.543 1.544-1.543h3.473c.853 0 1.544.69 1.544 1.544v.386h-1.158z" fill="#959FB0"/></g></svg><svg width="24" height="24" viewBox="0 0 24 24" id="link_hover" x="48" y="120"><title>Group Copy 28</title><g transform="translate(-668 -329)" fill="none" fill-rule="evenodd"><path d="M686.149 344.83h-3.474a1.544 1.544 0 0 1-1.544-1.543v-.386h1.158c0 .426.346.772.772.772h2.702a.772.772 0 0 0 .772-.772v-2.702a.772.772 0 0 0-.772-.772h-2.702a.772.772 0 0 0-.772.772h-1.158v-.386c0-.852.692-1.544 1.544-1.544h3.474c.852 0 1.544.692 1.544 1.545v3.473c0 .852-.692 1.544-1.544 1.544zm-9.824-3.74h8.202v1.025h-8.202v-1.025zm2.21-.89a.772.772 0 0 0-.773-.773h-2.701a.772.772 0 0 0-.772.772v2.702c0 .426.346.771.772.772h2.702a.772.772 0 0 0 .771-.772h1.158v.386c0 .853-.69 1.544-1.543 1.544h-3.474a1.544 1.544 0 0 1-1.544-1.544v-3.474c0-.852.691-1.543 1.544-1.543h3.473c.853 0 1.544.69 1.544 1.544v.386h-1.158z" fill="#398DEE"/></g></svg><svg width="24" height="24" viewBox="0 0 24 24" id="ol" x="72" y="120"><title>Slice 1</title><g transform="translate(6 6)" fill="none" fill-rule="evenodd"><g transform="rotate(180 6.5 5.5)" fill="#959FB0"><path d="M0 8h8.965v1H0zM0 0h8.965v1H0zM0 4h8.965v1H0z"/></g><path d="M2.805 7.5V8H.285v-.679c0-.351.064-.585.19-.7.126-.116.426-.216.9-.3.392-.07.624-.135.697-.192.072-.058.108-.207.108-.448 0-.231-.036-.378-.108-.44-.073-.062-.245-.093-.517-.093-.28 0-.456.032-.53.094-.073.063-.11.216-.11.458v.142h-.62v-.14c0-.418.087-.7.26-.844.172-.145.506-.217 1.003-.217.485 0 .814.073.987.22.174.146.26.424.26.834 0 .388-.066.647-.198.778-.131.13-.435.24-.91.328-.392.072-.62.133-.684.182-.063.05-.095.192-.095.426v.09h1.887zM2.21.667V4h-.633V1.22l-.867.859-.376-.408L1.411.667h.798zM1.292 11.042v-.49l.107.002c.355 0 .57-.021.648-.063.077-.043.116-.162.116-.36 0-.219-.035-.354-.104-.406-.069-.05-.252-.077-.548-.077-.268 0-.438.029-.508.085-.07.056-.105.193-.105.411v.098h-.61v-.125c0-.389.082-.649.247-.78.164-.13.489-.196.974-.196.488 0 .823.061 1.006.185.182.124.273.353.273.686 0 .46-.185.72-.554.777v.017c.402.044.603.286.603.727 0 .392-.089.656-.266.791-.178.135-.523.203-1.038.203-.504 0-.847-.068-1.029-.203-.181-.135-.272-.39-.272-.766l.002-.186h.618c.005.073.007.117.007.132 0 .23.039.373.116.43.078.057.272.085.583.085.284 0 .465-.03.54-.093.076-.062.114-.21.114-.444 0-.18-.035-.297-.104-.354-.069-.057-.213-.086-.43-.086H1.29z" fill="#398DEE"/></g></svg><svg width="24" height="24" viewBox="0 0 24 24" id="ol_hover" x="96" y="120"><title>Slice 2</title><g transform="translate(6 6)" fill="#398DEE" fill-rule="evenodd"><g transform="rotate(180 6.5 5.5)"><path d="M0 8h8.965v1H0zM0 0h8.965v1H0zM0 4h8.965v1H0z"/></g><path d="M2.805 7.5V8H.285v-.679c0-.351.064-.585.19-.7.126-.116.426-.216.9-.3.392-.07.624-.135.697-.192.072-.058.108-.207.108-.448 0-.231-.036-.378-.108-.44-.073-.062-.245-.093-.517-.093-.28 0-.456.032-.53.094-.073.063-.11.216-.11.458v.142h-.62v-.14c0-.418.087-.7.26-.844.172-.145.506-.217 1.003-.217.485 0 .814.073.987.22.174.146.26.424.26.834 0 .388-.066.647-.198.778-.131.13-.435.24-.91.328-.392.072-.62.133-.684.182-.063.05-.095.192-.095.426v.09h1.887zM2.21.667V4h-.633V1.22l-.867.859-.376-.408L1.411.667h.798zM1.292 11.042v-.49l.107.002c.355 0 .57-.021.648-.063.077-.043.116-.162.116-.36 0-.219-.035-.354-.104-.406-.069-.05-.252-.077-.548-.077-.268 0-.438.029-.508.085-.07.056-.105.193-.105.411v.098h-.61v-.125c0-.389.082-.649.247-.78.164-.13.489-.196.974-.196.488 0 .823.061 1.006.185.182.124.273.353.273.686 0 .46-.185.72-.554.777v.017c.402.044.603.286.603.727 0 .392-.089.656-.266.791-.178.135-.523.203-1.038.203-.504 0-.847-.068-1.029-.203-.181-.135-.272-.39-.272-.766l.002-.186h.618c.005.073.007.117.007.132 0 .23.039.373.116.43.078.057.272.085.583.085.284 0 .465-.03.54-.093.076-.062.114-.21.114-.444 0-.18-.035-.297-.104-.354-.069-.057-.213-.086-.43-.086H1.29z"/></g></svg><svg width="24" height="24" viewBox="0 0 24 24" id="pencil" x="120" y="120"><title>Group Copy 12</title><g transform="translate(-326 -270)" fill="none" fill-rule="evenodd"><g transform="translate(333 277)"><g fill="#959FB1"><path d="M10 3.322L6.683.027 6 .704 9.317 4 10 3.322zm-2.777.872L8 4.97 4.974 7.992 2.796 5.966l2.04-1.976-.183-.188L2.557 5.83 2 5.022 5.026 2l.776.775 1.421 1.42zM1.5 6L1 8.191 1.809 9 4 8.501 1.5 6zM1 9.681L0 10l.319-1L1 9.681z"/></g><path fill="#FFCF00" d="M0 10h10v2H0z"/></g></g></svg><svg width="24" height="24" viewBox="0 0 24 24" id="pencil_hover" x="144"><title>Group Copy 12</title><g transform="translate(-326 -329)" fill="none" fill-rule="evenodd"><g transform="translate(333 336)"><path d="M10 3.322L6.683.027 6 .704 9.317 4 10 3.322zm-2.777.872L8 4.97 4.974 7.992 2.796 5.966l2.04-1.976-.183-.188L2.557 5.83 2 5.022 5.026 2l.776.775 1.421 1.42zM1.5 6L1 8.191 1.809 9 4 8.501 1.5 6z" fill="#398DEE"/><path d="M1 9.681L0 10l.319-1L1 9.681z" fill="#959FB1"/><path fill="#FFCF00" d="M0 10h10v2H0z"/></g></g></svg><svg width="24" height="24" viewBox="0 0 24 24" id="quote" x="144" y="24"><title>Group Copy 22</title><g transform="translate(-538 -270)" fill="none" fill-rule="evenodd"><g transform="translate(544 277)" fill="#959FB0"><path d="M0 5h5v5H0z"/><path d="M5 .5V0H2.5C1.11 0 0 1.123 0 2.51v2.98C0 6.889 1.12 8 2.5 8 3.89 8 5 6.877 5 5.49H4C4 6.33 3.333 7 2.5 7 1.668 7 1 6.332 1 5.49V2.51C1 1.67 1.667 1 2.5 1H5V.5z"/><g transform="translate(7)"><path d="M0 5h5v5H0z"/><path d="M5 .5V0H2.5C1.11 0 0 1.123 0 2.51v2.98C0 6.889 1.12 8 2.5 8 3.89 8 5 6.877 5 5.49H4C4 6.33 3.333 7 2.5 7 1.668 7 1 6.332 1 5.49V2.51C1 1.67 1.667 1 2.5 1H5V.5z"/></g></g></g></svg><svg width="24" height="24" viewBox="0 0 24 24" id="quote_hover" x="144" y="48"><title>Group Copy 22</title><g transform="translate(-538 -329)" fill="none" fill-rule="evenodd"><g transform="translate(544 336)" fill="#398DEE"><path d="M0 5h5v5H0z"/><path d="M5 .5V0H2.5C1.11 0 0 1.123 0 2.51v2.98C0 6.889 1.12 8 2.5 8 3.89 8 5 6.877 5 5.49H4C4 6.33 3.333 7 2.5 7 1.668 7 1 6.332 1 5.49V2.51C1 1.67 1.667 1 2.5 1H5V.5z"/><g transform="translate(7)"><path d="M0 5h5v5H0z"/><path d="M5 .5V0H2.5C1.11 0 0 1.123 0 2.51v2.98C0 6.889 1.12 8 2.5 8 3.89 8 5 6.877 5 5.49H4C4 6.33 3.333 7 2.5 7 1.668 7 1 6.332 1 5.49V2.51C1 1.67 1.667 1 2.5 1H5V.5z"/></g></g></g></svg><svg width="24" height="24" viewBox="0 0 24 24" id="seq" x="144" y="72"><title>Group Copy 35</title><g transform="translate(-822 -270)" fill="none" fill-rule="evenodd"><g transform="translate(828 277)" fill="#959FB0"><g transform="rotate(-180 6.5 2.5)"><path d="M0 2h11v1H0z"/><path d="M9.667 5V0L13 2.5 9.667 5z"/></g><g transform="translate(0 5)"><path d="M0 2h11v1H0z"/><path d="M9.667 5V0L13 2.5 9.667 5z"/></g></g></g></svg><svg width="24" height="24" viewBox="0 0 24 24" id="seq_hover" x="144" y="96"><title>Group Copy 35</title><g transform="translate(-822 -329)" fill="none" fill-rule="evenodd"><g transform="translate(828 336)" fill="#398DEE"><g transform="rotate(-180 6.5 2.5)"><path d="M0 2h11v1H0z"/><path d="M9.667 5V0L13 2.5 9.667 5z"/></g><g transform="translate(0 5)"><path d="M0 2h11v1H0z"/><path d="M9.667 5V0L13 2.5 9.667 5z"/></g></g></g></svg><svg width="24" height="24" viewBox="0 0 24 24" id="strikethrough" x="144" y="120"><title>Group Copy 10</title><g transform="translate(-278 -270)" fill="none" fill-rule="evenodd"><g transform="translate(284 276)" fill="#959FB2"><path d="M0 6h12v1H0zM9.28 6a2.738 2.738 0 0 0-.277-.208 3.723 3.723 0 0 0-.987-.469 9.515 9.515 0 0 0-.777-.203c-.625-.159-1.132-.29-1.519-.392a5.634 5.634 0 0 1-.91-.308c-.22-.103-.366-.215-.441-.336a.898.898 0 0 1-.112-.476.94.94 0 0 1 .14-.532c.093-.14.212-.257.357-.35.145-.093.306-.159.483-.196.177-.037.355-.056.532-.056.27 0 .52.023.749.07.229.047.432.126.609.238.177.112.32.266.427.462.107.196.17.443.189.742h2.128c0-.579-.11-1.071-.329-1.477a2.868 2.868 0 0 0-.889-1.001c-.373-.261-.8-.45-1.281-.567A6.36 6.36 0 0 0 5.867.766c-.448 0-.896.06-1.344.182-.448.121-.85.308-1.204.56a2.981 2.981 0 0 0-.861.945c-.22.378-.329.824-.329 1.337 0 .457.086.847.259 1.169.173.322.399.59.679.805.11.085.227.164.35.236H9.28zm.927 2v.032c0 .457-.089.882-.266 1.274-.177.392-.441.73-.791 1.015-.35.285-.784.506-1.302.665-.518.159-1.118.238-1.799.238-.55 0-1.085-.068-1.603-.203a4.032 4.032 0 0 1-1.372-.637 3.147 3.147 0 0 1-.945-1.106c-.233-.448-.345-.98-.336-1.596h2.128c0 .336.06.62.182.854.121.233.282.422.483.567.2.145.436.252.707.322.27.07.55.105.84.105.196 0 .406-.016.63-.049.224-.033.434-.096.63-.189s.36-.222.49-.385.196-.371.196-.623c0-.102-.012-.197-.037-.284h2.165z"/></g></g></svg><svg width="24" height="24" viewBox="0 0 24 24" id="strikethrough_hover" y="144"><title>Group Copy 10</title><g transform="translate(-278 -329)" fill="none" fill-rule="evenodd"><g transform="translate(284 335)" fill="#398DEE"><path d="M0 6h12v1H0zM9.28 6a2.738 2.738 0 0 0-.277-.208 3.723 3.723 0 0 0-.987-.469 9.515 9.515 0 0 0-.777-.203c-.625-.159-1.132-.29-1.519-.392a5.634 5.634 0 0 1-.91-.308c-.22-.103-.366-.215-.441-.336a.898.898 0 0 1-.112-.476.94.94 0 0 1 .14-.532c.093-.14.212-.257.357-.35.145-.093.306-.159.483-.196.177-.037.355-.056.532-.056.27 0 .52.023.749.07.229.047.432.126.609.238.177.112.32.266.427.462.107.196.17.443.189.742h2.128c0-.579-.11-1.071-.329-1.477a2.868 2.868 0 0 0-.889-1.001c-.373-.261-.8-.45-1.281-.567A6.36 6.36 0 0 0 5.867.766c-.448 0-.896.06-1.344.182-.448.121-.85.308-1.204.56a2.981 2.981 0 0 0-.861.945c-.22.378-.329.824-.329 1.337 0 .457.086.847.259 1.169.173.322.399.59.679.805.11.085.227.164.35.236H9.28zm.927 2v.032c0 .457-.089.882-.266 1.274-.177.392-.441.73-.791 1.015-.35.285-.784.506-1.302.665-.518.159-1.118.238-1.799.238-.55 0-1.085-.068-1.603-.203a4.032 4.032 0 0 1-1.372-.637 3.147 3.147 0 0 1-.945-1.106c-.233-.448-.345-.98-.336-1.596h2.128c0 .336.06.62.182.854.121.233.282.422.483.567.2.145.436.252.707.322.27.07.55.105.84.105.196 0 .406-.016.63-.049.224-.033.434-.096.63-.189s.36-.222.49-.385.196-.371.196-.623c0-.102-.012-.197-.037-.284h2.165z"/></g></g></svg><svg width="24" height="24" viewBox="0 0 24 24" id="table" x="24" y="144"><title>Group Copy 31</title><g transform="translate(-740 -270)" fill="none" fill-rule="evenodd"><g transform="translate(746 277)"><path fill="#959FB2" d="M4 1h1v8H4zM8 1h1v8H8z"/><path fill="#959FB2" d="M1 3h11v1H1zM1 6h11v1H1z"/><path d="M0 1h1v8H0h13-1V1h1H0zm0-1h13v10H0V0z" fill="#959FB2"/><path fill="#E4F2FF" d="M1 7h3v2H1zM5 7h3v2H5zM9 7h3v2H9zM9 4h3v2H9zM9 1h3v2H9z"/></g></g></svg><svg width="24" height="24" viewBox="0 0 24 24" id="table_hover" x="48" y="144"><title>Group Copy 31</title><g transform="translate(-740 -329)" fill="none" fill-rule="evenodd"><g transform="translate(746 336)"><path fill="#959FB2" d="M4 1h1v8H4zM8 1h1v8H8z"/><path fill="#959FB2" d="M1 3h11v1H1zM1 6h11v1H1z"/><path d="M0 1h1v8H0h13-1V1h1H0zm13-1v10H0V0h13z" fill="#959FB2"/><path fill="#398DEE" d="M1 7h3v2H1zM5 7h3v2H5zM9 7h3v2H9zM9 4h3v2H9zM9 1h3v2H9z"/></g></g></svg><svg width="24" height="24" viewBox="0 0 24 24" id="ul" x="72" y="144"><title>Group Copy 23</title><g transform="translate(-562 -270)" fill="none" fill-rule="evenodd"><g transform="translate(568 277)"><g transform="rotate(-180 6.5 5)" fill="#959FB0"><path d="M0 8h8.965v1H0zM0 0h8.965v1H0zM0 4h8.965v1H0z"/></g><path fill="#398DEE" d="M1 0h1v3H1z"/><path fill="#398DEE" d="M0 2V1h3v1zM0 6V5h3v1zM0 10V9h3v1z"/><path fill="#398DEE" d="M1 4h1v3H1zM1 8h1v3H1z"/></g></g></svg><svg width="24" height="24" viewBox="0 0 24 24" id="ul_hover" x="96" y="144"><title>Group Copy 23</title><g transform="translate(-562 -329)" fill="none" fill-rule="evenodd"><g transform="translate(568 336)" fill="#398DEE"><g transform="rotate(-180 6.5 5)"><path d="M0 8h8.965v1H0zM0 0h8.965v1H0zM0 4h8.965v1H0z"/></g><path d="M1 0h1v3H1z"/><path d="M0 2V1h3v1zM0 6V5h3v1zM0 10V9h3v1z"/><path d="M1 4h1v3H1zM1 8h1v3H1z"/></g></g></svg><svg width="24" height="24" viewBox="0 0 24 24" id="unchecked" x="120" y="144"><title>Group Copy 25</title><g transform="translate(-610 -270)" fill="none" fill-rule="evenodd"><path d="M618 277.995v8.01c0-.008.003-.005-.005-.005h8.01c-.008 0-.005-.003-.005.005v-8.01c0 .008-.003.005.005.005h-8.01c.008 0 .005.003.005-.005zm-1 0c0-.55.456-.995.995-.995h8.01c.55 0 .995.456.995.995v8.01c0 .55-.456.995-.995.995h-8.01c-.55 0-.995-.456-.995-.995v-8.01z" fill="#959FB0"/></g></svg><svg width="24" height="24" viewBox="0 0 24 24" id="unchecked_hover" x="144" y="144"><title>Group Copy 25</title><g transform="translate(-610 -329)" fill="none" fill-rule="evenodd"><path d="M618 336.995v8.01c0-.008.003-.005-.005-.005h8.01c-.008 0-.005-.003-.005.005v-8.01c0 .008-.003.005.005.005h-8.01c.008 0 .005.003.005-.005zm-1 0c0-.55.456-.995.995-.995h8.01c.55 0 .995.456.995.995v8.01c0 .55-.456.995-.995.995h-8.01c-.55 0-.995-.456-.995-.995v-8.01z" fill="#398DEE"/></g></svg><svg width="24" height="24" viewBox="0 0 24 24" id="underline" x="96" y="96"><title>Group Copy 11</title><g transform="translate(-302 -270)" fill="none" fill-rule="evenodd"><g transform="translate(309 277)" fill="#959FB2"><path d="M7 .394v4.718c0 .639-.518 1.414-1.156 1.414H4.156C3.518 6.526 3 5.75 3 5.112V.394H1v4.925a2.698 2.698 0 0 0 2.698 2.698h2.604A2.698 2.698 0 0 0 9 5.319V.394H7zM10 10H0V9h10v1z"/></g></g></svg><svg width="24" height="24" viewBox="0 0 24 24" id="underline_hover" x="168"><title>Group Copy 11</title><g transform="translate(-302 -329)" fill="none" fill-rule="evenodd"><g transform="translate(309 336)" fill="#398DEE"><path d="M7 .394v4.718c0 .639-.518 1.414-1.156 1.414H4.156C3.518 6.526 3 5.75 3 5.112V.394H1v4.925a2.698 2.698 0 0 0 2.698 2.698h2.604A2.698 2.698 0 0 0 9 5.319V.394H7zM10 10H0V9h10v1z"/></g></g></svg></svg>