<?xml version="1.0" encoding="UTF-8" standalone="no"?><svg width="192" height="168" viewBox="0 0 192 168" xmlns="http://www.w3.org/2000/svg" xmlns:xlink="http://www.w3.org/1999/xlink"><svg width="24" height="24" viewBox="0 0 24 24" id="bold" x="24"><title>Group</title><g transform="translate(-230 -270)" fill="none" fill-rule="evenodd"><path d="M241.763 282.352l-1.606-.01v3.33l1.688.04c1.195 0 1.793-.593 1.793-1.776-.054-1.024-.68-1.552-1.875-1.584m-.232-3.987h-1.373v2.6h1.374c1.066-.028 1.61-.482 1.638-1.362-.027-.825-.572-1.238-1.637-1.238m.83 8.618H238V277h4.126c2.03.065 3.11.86 3.235 2.386-.03 1.266-.687 2.045-1.968 2.337v.05c1.47.26 2.265 1.055 2.39 2.385 0 1.884-1.14 2.825-3.422 2.825" fill="#959FB2"/></g></svg><svg width="24" height="24" viewBox="0 0 24 24" id="bold_hover" x="120"><title>Group</title><g transform="translate(-230 -329)" fill="none" fill-rule="evenodd"><path d="M241.763 341.352l-1.606-.01v3.33l1.688.04c1.195 0 1.793-.593 1.793-1.776-.054-1.024-.68-1.552-1.875-1.584m-.232-3.987h-1.373v2.6h1.374c1.066-.028 1.61-.482 1.638-1.362-.027-.825-.572-1.238-1.637-1.238m.83 8.618H238V336h4.126c2.03.065 3.11.86 3.235 2.386-.03 1.266-.687 2.045-1.968 2.337v.05c1.47.26 2.265 1.055 2.39 2.385 0 1.884-1.14 2.825-3.422 2.825" fill="#398DEE"/></g></svg><svg width="24" height="24" viewBox="0 0 24 24" id="checked" y="24"><title>Group Copy 26</title><g transform="translate(-634 -270)" fill="none" fill-rule="evenodd"><g transform="translate(641 276)" fill="#959FB0"><path d="M9 1H.83a.835.835 0 0 0-.83.835v8.33A.84.84 0 0 0 .835 11h8.33c.455 0 .835-.37.835-.825V7.01H9v3.165c0-.103.074-.175.165-.175H.835a.16.16 0 0 1 .165.165v-8.33A.165.165 0 0 1 .83 2H9V1z"/><g transform="rotate(-45 8.04 .904)"><path d="M1.2.2v4h-1v-4z"/><path d="M.2 3.2h7v1h-7z"/></g></g></g></svg><svg width="24" height="24" viewBox="0 0 24 24" id="checked_hover" x="24" y="24"><title>Group Copy 26</title><g transform="translate(-634 -329)" fill="none" fill-rule="evenodd"><g transform="translate(641 335)" fill="#398DEE"><path d="M9 1H.83a.835.835 0 0 0-.83.835v8.33A.84.84 0 0 0 .835 11h8.33c.455 0 .835-.37.835-.825V7.01H9v3.165c0-.103.074-.175.165-.175H.835a.16.16 0 0 1 .165.165v-8.33A.165.165 0 0 1 .83 2H9V1z"/><g transform="rotate(-45 8.04 .904)"><path d="M1.2.2v4h-1v-4z"/><path d="M.2 3.2h7v1h-7z"/></g></g></g></svg><svg width="24" height="24" viewBox="0 0 24 24" id="code" x="48"><title>Group Copy 30</title><g transform="translate(-716 -270)" fill="none" fill-rule="evenodd"><g transform="translate(720 277)" fill="#959FB0"><path d="M3.758 1.15L.153 4.647a.49.49 0 0 0 0 .706L3.758 8.85l.728-.707L1.246 5l3.24-3.143-.728-.707zM13.242 1.15l-.728.707L15.754 5l-3.24 3.143.728.707 3.605-3.497a.49.49 0 0 0 0-.706L13.242 1.15zM9.69.336L6.342 9.32l.968.344L10.658.68 9.69.336z"/></g></g></svg><svg width="24" height="24" viewBox="0 0 24 24" id="code_hover" x="48" y="24"><title>Group Copy 30</title><g transform="translate(-716 -329)" fill="none" fill-rule="evenodd"><g transform="translate(720 336)" fill="#398DEE"><path d="M3.758 1.15L.153 4.647a.49.49 0 0 0 0 .706L3.758 8.85l.728-.707L1.246 5l3.24-3.143-.728-.707zM13.242 1.15l-.728.707L15.754 5l-3.24 3.143.728.707 3.605-3.497a.49.49 0 0 0 0-.706L13.242 1.15zM9.69.336L6.342 9.32l.968.344L10.658.68 9.69.336z"/></g></g></svg><svg width="24" height="24" viewBox="0 0 24 24" id="flow" y="48"><title>Group Copy 34</title><g transform="translate(-798 -270)" fill="none" fill-rule="evenodd"><g transform="translate(804 279)" fill="#959FB0"><path d="M0 2h10v2H0z"/><path d="M9 6V0l4 3-4 3z"/></g></g></svg><svg width="24" height="24" viewBox="0 0 24 24" id="flow_hover" x="24" y="48"><title>Group Copy 34</title><g transform="translate(-798 -329)" fill="none" fill-rule="evenodd"><g transform="translate(804 338)" fill="#398DEE"><path d="M0 2h10v2H0z"/><path d="M9 6V0l4 3-4 3z"/></g></g></svg><svg width="24" height="24" viewBox="0 0 24 24" id="formula" x="48" y="48"><title>Slice 1</title><g transform="translate(7 6)" fill="none" fill-rule="evenodd"><path d="M11.822 3.315L11.755 4H9.32l.067-.643c.9-.502 1.35-1.005 1.35-1.51 0-.42-.29-.63-.873-.63-.156 0-.32.014-.496.044l.06-.594c.186-.047.45-.07.79-.07.436 0 .768.092.996.278.23.185.343.438.343.758 0 .4-.15.746-.447 1.034a3.316 3.316 0 0 1-.945.656v.04c.47 0 1.024-.015 1.657-.047z" fill="#398DEE"/><g transform="translate(.277 2)" fill="#959FB2"><path d="M6.106 0L0 8.723h1.745L7.85 0H6.107z"/><path d="M.218 0l6.106 8.723H8.07L1.962 0H.218z"/></g></g></svg><svg width="24" height="24" viewBox="0 0 24 24" id="formula_hover" x="72"><title>Slice 2</title><g transform="translate(7 6)" fill="#398DEE" fill-rule="evenodd"><path d="M11.822 3.315L11.755 4H9.32l.067-.643c.9-.502 1.35-1.005 1.35-1.51 0-.42-.29-.63-.873-.63-.156 0-.32.014-.496.044l.06-.594c.186-.047.45-.07.79-.07.436 0 .768.092.996.278.23.185.343.438.343.758 0 .4-.15.746-.447 1.034a3.316 3.316 0 0 1-.945.656v.04c.47 0 1.024-.015 1.657-.047z"/><g transform="translate(.277 2)"><path d="M6.106 0L0 8.723h1.745L7.85 0H6.107z"/><path d="M.218 0l6.106 8.723H8.07L1.962 0H.218z"/></g></g></svg><svg width="24" height="24" viewBox="0 0 24 24" id="gantt" x="72" y="24"><title>Group Copy 36</title><g transform="translate(-846 -270)" fill="none" fill-rule="evenodd"><g transform="translate(852 277)"><g transform="rotate(-180 6.5 5)" fill="#959FB0"><path d="M0 8h13v1H0zM0 0h13v1H0zM0 4h13v1H0z"/></g><path fill="#5A9AF8" d="M10 0h1v3h-1zM2 4h1v3H2zM10 8h1v3h-1z"/></g></g></svg><svg width="24" height="24" viewBox="0 0 24 24" id="gantt_hover" x="72" y="48"><title>Group Copy 36</title><g transform="translate(-846 -329)" fill="none" fill-rule="evenodd"><g transform="translate(852 336)"><g transform="rotate(-180 6.5 5)" fill="#398DEE"><path d="M0 8h13v1H0zM0 0h13v1H0zM0 4h13v1H0z"/></g><path fill="#5A9AF8" d="M10 0h1v3h-1zM2 4h1v3H2zM10 8h1v3h-1z"/></g></g></svg><svg width="24" height="24" viewBox="0 0 24 24" id="heading1" y="72"><title>Group Copy 14</title><g transform="translate(-360 -270)" fill="none" fill-rule="evenodd"><path d="M366.304 277v3.27c.275-.293.58-.49.916-.594a3.658 3.658 0 0 1 1.084-.156c.338 0 .65.054.932.162.284.108.53.257.733.446.204.19.363.412.476.67.112.256.17.535.17.837v4.878h-1.292v-4.71a1.2 1.2 0 0 0-.104-.526.997.997 0 0 0-.28-.355 1.104 1.104 0 0 0-.403-.2c-.15-.04-.305-.06-.463-.06-.21 0-.422.044-.63.132-.21.088-.4.208-.57.36-.168.154-.305.335-.41.542a1.45 1.45 0 0 0-.16.67v4.147H365V277h1.304zm9.372 9.513v-6.925a3.805 3.805 0 0 1-1.382.956c-.53.214-1.118.32-1.767.32v-1.23c.352 0 .675-.04.97-.12.295-.082.558-.187.79-.318a2.85 2.85 0 0 0 .608-.453c.174-.17.32-.347.436-.527.118-.18.205-.358.26-.534.058-.175.086-.335.086-.48h1.27v9.31h-1.27z" fill="#959FB2"/></g></svg><svg width="24" height="24" viewBox="0 0 24 24" id="heading1_hover" x="24" y="72"><title>Group Copy 14</title><g transform="translate(-360 -329)" fill="none" fill-rule="evenodd"><path d="M366.304 336v3.27c.275-.293.58-.49.916-.594a3.658 3.658 0 0 1 1.084-.156c.338 0 .65.054.932.162.284.108.53.257.733.446.204.19.363.412.476.67.112.256.17.535.17.837v4.878h-1.292v-4.71a1.2 1.2 0 0 0-.104-.526.997.997 0 0 0-.28-.355 1.104 1.104 0 0 0-.403-.2c-.15-.04-.305-.06-.463-.06-.21 0-.422.044-.63.132-.21.088-.4.208-.57.36-.168.154-.305.335-.41.542a1.45 1.45 0 0 0-.16.67v4.147H365V336h1.304zm9.372 9.513v-6.925a3.805 3.805 0 0 1-1.382.956c-.53.214-1.118.32-1.767.32v-1.23c.352 0 .675-.04.97-.12.295-.082.558-.187.79-.318a2.85 2.85 0 0 0 .608-.453c.174-.17.32-.347.436-.527.118-.18.205-.358.26-.534.058-.175.086-.335.086-.48h1.27v9.31h-1.27z" fill="#398DEE"/></g></svg><svg width="24" height="24" viewBox="0 0 24 24" id="heading2" x="48" y="72"><title>Group Copy 15</title><g transform="translate(-384 -270)" fill="none" fill-rule="evenodd"><path d="M390.304 277v3.27c.275-.293.58-.49.916-.594a3.658 3.658 0 0 1 1.084-.156c.338 0 .65.054.932.162.284.108.53.257.733.446.204.19.363.412.476.67.112.256.17.535.17.837v4.878h-1.292v-4.71a1.2 1.2 0 0 0-.104-.526.997.997 0 0 0-.28-.355 1.104 1.104 0 0 0-.403-.2c-.15-.04-.305-.06-.463-.06-.21 0-.422.044-.63.132-.21.088-.4.208-.57.36-.168.154-.305.335-.41.542a1.45 1.45 0 0 0-.16.67v4.147H389V277h1.304zm5.595 3.203a3.82 3.82 0 0 1 .337-1.237c.175-.37.404-.684.685-.946.282-.26.612-.463.99-.604a3.534 3.534 0 0 1 1.25-.213c.478 0 .9.074 1.264.223.365.148.67.345.92.59.246.246.432.528.556.845.124.32.186.647.186.985 0 .378-.056.717-.17 1.016a3.2 3.2 0 0 1-.448.82 3.956 3.956 0 0 1-.65.668c-.244.2-.502.39-.773.57-.27.18-.54.358-.814.53-.272.175-.53.354-.77.538-.24.185-.458.383-.652.595a2.408 2.408 0 0 0-.452.71h4.73v1.223h-6.162v-1.04c0-.325.07-.62.21-.89.14-.267.322-.517.55-.75.227-.23.486-.448.777-.65.29-.203.588-.4.892-.592.304-.19.6-.38.892-.57.29-.19.548-.387.773-.594.226-.208.408-.427.548-.66.14-.23.21-.485.21-.76 0-.288-.043-.54-.126-.76a1.535 1.535 0 0 0-.345-.547 1.402 1.402 0 0 0-.513-.328 1.816 1.816 0 0 0-.632-.11c-.27 0-.518.045-.743.133a1.69 1.69 0 0 0-.59.382c-.165.167-.297.37-.394.61-.097.242-.154.514-.172.816H395.9z" fill="#959FB2"/></g></svg><svg width="24" height="24" viewBox="0 0 24 24" id="heading2_hover" x="72" y="72"><title>Group Copy 15</title><g transform="translate(-384 -329)" fill="none" fill-rule="evenodd"><path d="M390.304 336v3.27c.275-.293.58-.49.916-.594a3.658 3.658 0 0 1 1.084-.156c.338 0 .65.054.932.162.284.108.53.257.733.446.204.19.363.412.476.67.112.256.17.535.17.837v4.878h-1.292v-4.71a1.2 1.2 0 0 0-.104-.526.997.997 0 0 0-.28-.355 1.104 1.104 0 0 0-.403-.2c-.15-.04-.305-.06-.463-.06-.21 0-.422.044-.63.132-.21.088-.4.208-.57.36-.168.154-.305.335-.41.542a1.45 1.45 0 0 0-.16.67v4.147H389V336h1.304zm5.595 3.203a3.82 3.82 0 0 1 .337-1.237c.175-.37.404-.684.685-.946.282-.26.612-.463.99-.604a3.534 3.534 0 0 1 1.25-.213c.478 0 .9.074 1.264.223.365.148.67.345.92.59.246.246.432.528.556.845.124.32.186.647.186.985 0 .378-.056.717-.17 1.016a3.2 3.2 0 0 1-.448.82 3.956 3.956 0 0 1-.65.668c-.244.2-.502.39-.773.57-.27.18-.54.358-.814.53-.272.175-.53.354-.77.538-.24.185-.458.383-.652.595a2.408 2.408 0 0 0-.452.71h4.73v1.223h-6.162v-1.04c0-.325.07-.62.21-.89.14-.267.322-.517.55-.75.227-.23.486-.448.777-.65.29-.203.588-.4.892-.592.304-.19.6-.38.892-.57.29-.19.548-.387.773-.594.226-.208.408-.427.548-.66.14-.23.21-.485.21-.76 0-.288-.043-.54-.126-.76a1.535 1.535 0 0 0-.345-.547 1.402 1.402 0 0 0-.513-.328 1.816 1.816 0 0 0-.632-.11c-.27 0-.518.045-.743.133a1.69 1.69 0 0 0-.59.382c-.165.167-.297.37-.394.61-.097.242-.154.514-.172.816H395.9z" fill="#398DEE"/></g></svg><svg width="24" height="24" viewBox="0 0 24 24" id="heading3" x="96"><title>Group Copy 16</title><g transform="translate(-408 -270)" fill="none" fill-rule="evenodd"><path d="M414.304 277v3.27c.275-.293.58-.49.916-.594a3.658 3.658 0 0 1 1.084-.156c.338 0 .65.054.932.162.284.108.53.257.733.446.204.19.363.412.476.67.112.256.17.535.17.837v4.878h-1.292v-4.71a1.2 1.2 0 0 0-.104-.526.997.997 0 0 0-.28-.355 1.104 1.104 0 0 0-.403-.2c-.15-.04-.305-.06-.463-.06-.21 0-.422.044-.63.132-.21.088-.4.208-.57.36-.168.154-.305.335-.41.542a1.45 1.45 0 0 0-.16.67v4.147H413V277h1.304zm5.71 3.06c.067-.373.176-.73.327-1.074.152-.342.35-.645.596-.908.245-.264.543-.473.892-.63.35-.154.753-.232 1.213-.232.43 0 .814.06 1.156.183.342.12.633.29.872.505.238.217.42.473.547.77.126.298.19.622.19.974 0 .404-.098.774-.29 1.11a2.508 2.508 0 0 1-.82.848c.235.104.447.227.636.372.19.144.35.31.484.5.133.19.236.404.308.645.072.24.108.51.108.807 0 .442-.084.83-.25 1.17a2.49 2.49 0 0 1-.673.847c-.28.227-.61.4-.983.516-.373.117-.77.176-1.19.176-.44 0-.847-.07-1.218-.206a2.98 2.98 0 0 1-.987-.598c-.287-.262-.53-.58-.73-.96a4.98 4.98 0 0 1-.457-1.29h1.365c.068.383.174.7.318.956.144.254.31.458.496.61.187.154.386.264.595.33.21.064.416.097.618.097a1.913 1.913 0 0 0 1.22-.45c.17-.14.306-.313.412-.515.106-.203.16-.43.16-.683 0-.243-.045-.47-.133-.68a1.592 1.592 0 0 0-.378-.546 1.806 1.806 0 0 0-.595-.368 2.14 2.14 0 0 0-.78-.135h-.75v-1.15h.75c.27 0 .5-.037.686-.114.187-.077.338-.178.453-.302.114-.123.197-.264.25-.422a1.55 1.55 0 0 0 .077-.486c0-.455-.132-.81-.395-1.068-.264-.257-.62-.385-1.07-.385a1.43 1.43 0 0 0-.68.155c-.196.104-.365.24-.507.406a1.983 1.983 0 0 0-.338.57c-.083.215-.14.432-.166.653h-1.336z" fill="#959FB2"/></g></svg><svg width="24" height="24" viewBox="0 0 24 24" id="heading3_hover" x="96" y="24"><title>Group Copy 16</title><g transform="translate(-408 -329)" fill="none" fill-rule="evenodd"><path d="M414.304 336v3.27c.275-.293.58-.49.916-.594a3.658 3.658 0 0 1 1.084-.156c.338 0 .65.054.932.162.284.108.53.257.733.446.204.19.363.412.476.67.112.256.17.535.17.837v4.878h-1.292v-4.71a1.2 1.2 0 0 0-.104-.526.997.997 0 0 0-.28-.355 1.104 1.104 0 0 0-.403-.2c-.15-.04-.305-.06-.463-.06-.21 0-.422.044-.63.132-.21.088-.4.208-.57.36-.168.154-.305.335-.41.542a1.45 1.45 0 0 0-.16.67v4.147H413V336h1.304zm5.71 3.06c.067-.373.176-.73.327-1.074.152-.342.35-.645.596-.908.245-.264.543-.473.892-.63.35-.154.753-.232 1.213-.232.43 0 .814.06 1.156.183.342.12.633.29.872.505.238.217.42.473.547.77.126.298.19.622.19.974 0 .404-.098.774-.29 1.11a2.508 2.508 0 0 1-.82.848c.235.104.447.227.636.372.19.144.35.31.484.5.133.19.236.404.308.645.072.24.108.51.108.807 0 .442-.084.83-.25 1.17a2.49 2.49 0 0 1-.673.847c-.28.227-.61.4-.983.516-.373.117-.77.176-1.19.176-.44 0-.847-.07-1.218-.206a2.98 2.98 0 0 1-.987-.598c-.287-.262-.53-.58-.73-.96a4.98 4.98 0 0 1-.457-1.29h1.365c.068.383.174.7.318.956.144.254.31.458.496.61.187.154.386.264.595.33.21.064.416.097.618.097a1.913 1.913 0 0 0 1.22-.45c.17-.14.306-.313.412-.515.106-.203.16-.43.16-.683 0-.243-.045-.47-.133-.68a1.592 1.592 0 0 0-.378-.546 1.806 1.806 0 0 0-.595-.368 2.14 2.14 0 0 0-.78-.135h-.75v-1.15h.75c.27 0 .5-.037.686-.114.187-.077.338-.178.453-.302.114-.123.197-.264.25-.422a1.55 1.55 0 0 0 .077-.486c0-.455-.132-.81-.395-1.068-.264-.257-.62-.385-1.07-.385a1.43 1.43 0 0 0-.68.155c-.196.104-.365.24-.507.406a1.983 1.983 0 0 0-.338.57c-.083.215-.14.432-.166.653h-1.336z" fill="#398DEE"/></g></svg><svg width="24" height="24" viewBox="0 0 24 24" id="heading4" x="96" y="48"><title>Group Copy 17</title><g transform="translate(-432 -270)" fill="none" fill-rule="evenodd"><path d="M438.304 277v3.27c.275-.293.58-.49.916-.594a3.658 3.658 0 0 1 1.084-.156c.338 0 .65.054.932.162.284.108.53.257.733.446.204.19.363.412.476.67.112.256.17.535.17.837v4.878h-1.292v-4.71a1.2 1.2 0 0 0-.104-.526.997.997 0 0 0-.28-.355 1.104 1.104 0 0 0-.403-.2c-.15-.04-.305-.06-.463-.06-.21 0-.422.044-.63.132-.21.088-.4.208-.57.36-.168.154-.305.335-.41.542a1.45 1.45 0 0 0-.16.67v4.147H437V277h1.304zm9.46 9.513v-2.23h-4.108v-1.29l4.114-5.67h1.257v5.907h1.31v1.054h-1.31v2.23h-1.263zm-2.838-3.283h2.838v-4l-2.838 4z" fill="#959FB2"/></g></svg><svg width="24" height="24" viewBox="0 0 24 24" id="heading4_hover" x="96" y="72"><title>Group Copy 17</title><g transform="translate(-432 -329)" fill="none" fill-rule="evenodd"><path d="M438.304 336v3.27c.275-.293.58-.49.916-.594a3.658 3.658 0 0 1 1.084-.156c.338 0 .65.054.932.162.284.108.53.257.733.446.204.19.363.412.476.67.112.256.17.535.17.837v4.878h-1.292v-4.71a1.2 1.2 0 0 0-.104-.526.997.997 0 0 0-.28-.355 1.104 1.104 0 0 0-.403-.2c-.15-.04-.305-.06-.463-.06-.21 0-.422.044-.63.132-.21.088-.4.208-.57.36-.168.154-.305.335-.41.542a1.45 1.45 0 0 0-.16.67v4.147H437V336h1.304zm9.46 9.513v-2.23h-4.108v-1.29l4.114-5.67h1.257v5.907h1.31v1.054h-1.31v2.23h-1.263zm-2.838-3.283h2.838v-4l-2.838 4z" fill="#398DEE"/></g></svg><svg width="24" height="24" viewBox="0 0 24 24" id="heading5" y="96"><title>Group Copy 18</title><g transform="translate(-456 -270)" fill="none" fill-rule="evenodd"><path d="M462.304 277v3.27c.275-.293.58-.49.916-.594a3.658 3.658 0 0 1 1.084-.156c.338 0 .65.054.932.162.284.108.53.257.733.446.204.19.363.412.476.67.112.256.17.535.17.837v4.878h-1.292v-4.71a1.2 1.2 0 0 0-.104-.526.997.997 0 0 0-.28-.355 1.104 1.104 0 0 0-.403-.2c-.15-.04-.305-.06-.463-.06-.21 0-.422.044-.63.132-.21.088-.4.208-.57.36-.168.154-.305.335-.41.542a1.45 1.45 0 0 0-.16.67v4.147H461V277h1.304zm5.716 5.27l.63-4.946h5.08v1.075h-4.034c-.013.13-.034.303-.06.52l-.092.732-.145 1.118c.165-.09.335-.162.51-.216a4.332 4.332 0 0 1 .92-.182c.127-.01.23-.014.305-.014.446 0 .858.082 1.237.247a3.026 3.026 0 0 1 1.625 1.672c.155.383.233.79.233 1.223 0 .4-.068.79-.203 1.165-.135.376-.34.71-.61 1.004a2.99 2.99 0 0 1-1.04.705c-.417.178-.91.267-1.478.267-.38 0-.738-.054-1.076-.162a2.834 2.834 0 0 1-.918-.494 3.14 3.14 0 0 1-.713-.824 3.93 3.93 0 0 1-.456-1.155h1.344c.078.252.18.476.305.672.126.195.27.36.433.492.162.133.336.234.523.304.188.07.38.105.572.105.275 0 .534-.052.777-.158.242-.106.455-.252.638-.44a2.13 2.13 0 0 0 .598-1.482c0-.302-.058-.58-.173-.83a2.068 2.068 0 0 0-1.1-1.07 1.93 1.93 0 0 0-1.19-.093c-.155.036-.307.09-.456.162-.15.07-.29.158-.426.26-.134.1-.253.214-.357.34h-1.203z" fill="#959FB2"/></g></svg><svg width="24" height="24" viewBox="0 0 24 24" id="heading5_hover" x="24" y="96"><title>Group Copy 18</title><g transform="translate(-456 -329)" fill="none" fill-rule="evenodd"><path d="M462.304 336v3.27c.275-.293.58-.49.916-.594a3.658 3.658 0 0 1 1.084-.156c.338 0 .65.054.932.162.284.108.53.257.733.446.204.19.363.412.476.67.112.256.17.535.17.837v4.878h-1.292v-4.71a1.2 1.2 0 0 0-.104-.526.997.997 0 0 0-.28-.355 1.104 1.104 0 0 0-.403-.2c-.15-.04-.305-.06-.463-.06-.21 0-.422.044-.63.132-.21.088-.4.208-.57.36-.168.154-.305.335-.41.542a1.45 1.45 0 0 0-.16.67v4.147H461V336h1.304zm5.716 5.27l.63-4.946h5.08v1.075h-4.034c-.013.13-.034.303-.06.52l-.092.732-.145 1.118c.165-.09.335-.162.51-.216a4.332 4.332 0 0 1 .92-.182c.127-.01.23-.014.305-.014.446 0 .858.082 1.237.247a3.026 3.026 0 0 1 1.625 1.672c.155.383.233.79.233 1.223 0 .4-.068.79-.203 1.165-.135.376-.34.71-.61 1.004a2.99 2.99 0 0 1-1.04.705c-.417.178-.91.267-1.478.267-.38 0-.738-.054-1.076-.162a2.834 2.834 0 0 1-.918-.494 3.14 3.14 0 0 1-.713-.824 3.93 3.93 0 0 1-.456-1.155h1.344c.078.252.18.476.305.672.126.195.27.36.433.492.162.133.336.234.523.304.188.07.38.105.572.105.275 0 .534-.052.777-.158.242-.106.455-.252.638-.44a2.13 2.13 0 0 0 .598-1.482c0-.302-.058-.58-.173-.83a2.068 2.068 0 0 0-1.1-1.07 1.93 1.93 0 0 0-1.19-.093c-.155.036-.307.09-.456.162-.15.07-.29.158-.426.26-.134.1-.253.214-.357.34h-1.203z" fill="#398DEE"/></g></svg><svg width="24" height="24" viewBox="0 0 24 24" id="heading6" x="48" y="96"><title>Group Copy 19</title><g transform="translate(-480 -270)" fill="none" fill-rule="evenodd"><path d="M486.304 277v3.27c.275-.293.58-.49.916-.594a3.658 3.658 0 0 1 1.084-.156c.338 0 .65.054.932.162.284.108.53.257.733.446.204.19.363.412.476.67.112.256.17.535.17.837v4.878h-1.292v-4.71a1.2 1.2 0 0 0-.104-.526.997.997 0 0 0-.28-.355 1.104 1.104 0 0 0-.403-.2c-.15-.04-.305-.06-.463-.06-.21 0-.422.044-.63.132-.21.088-.4.208-.57.36-.168.154-.305.335-.41.542a1.45 1.45 0 0 0-.16.67v4.147H485V277h1.304zm10.54 2.628a1.77 1.77 0 0 0-.524-.93 1.718 1.718 0 0 0-.48-.313 1.456 1.456 0 0 0-.597-.122c-.374 0-.69.096-.952.288-.26.192-.477.44-.648.744-.17.304-.3.643-.39 1.017a7.765 7.765 0 0 0-.178 1.11c.154-.19.32-.348.504-.474.182-.126.367-.226.554-.3.187-.075.37-.127.547-.156a3.117 3.117 0 0 1 1.733.196c.37.16.683.38.942.665.26.285.458.62.598 1.005.14.385.21.8.21 1.246 0 .41-.07.8-.207 1.17-.137.37-.334.693-.59.97-.258.277-.57.496-.94.658a3.08 3.08 0 0 1-1.25.244 3.36 3.36 0 0 1-1.375-.274 2.802 2.802 0 0 1-1.053-.81c-.29-.36-.515-.805-.673-1.34-.157-.532-.236-1.15-.236-1.853 0-.892.08-1.662.24-2.31.16-.65.387-1.185.682-1.606.295-.422.65-.735 1.064-.94a3.097 3.097 0 0 1 1.392-.307c.42 0 .795.067 1.13.202a2.73 2.73 0 0 1 1.438 1.318c.148.293.25.595.304.905h-1.243zm-1.668 5.953c.238 0 .46-.05.665-.155a1.7 1.7 0 0 0 .535-.422c.15-.178.27-.387.355-.628.085-.24.128-.5.128-.774 0-.265-.04-.52-.12-.762a2.044 2.044 0 0 0-.346-.642 1.66 1.66 0 0 0-.537-.44 1.487 1.487 0 0 0-.693-.162 1.6 1.6 0 0 0-.784.183 1.74 1.74 0 0 0-.55.47 2.02 2.02 0 0 0-.328.638 2.336 2.336 0 0 0-.108.69 2.12 2.12 0 0 0 .544 1.435c.164.178.354.318.567.42.214.1.44.15.673.15z" fill="#959FB2"/></g></svg><svg width="24" height="24" viewBox="0 0 24 24" id="heading6_hover" x="72" y="96"><title>Group Copy 19</title><g transform="translate(-480 -329)" fill="none" fill-rule="evenodd"><path d="M486.304 336v3.27c.275-.293.58-.49.916-.594a3.658 3.658 0 0 1 1.084-.156c.338 0 .65.054.932.162.284.108.53.257.733.446.204.19.363.412.476.67.112.256.17.535.17.837v4.878h-1.292v-4.71a1.2 1.2 0 0 0-.104-.526.997.997 0 0 0-.28-.355 1.104 1.104 0 0 0-.403-.2c-.15-.04-.305-.06-.463-.06-.21 0-.422.044-.63.132-.21.088-.4.208-.57.36-.168.154-.305.335-.41.542a1.45 1.45 0 0 0-.16.67v4.147H485V336h1.304zm10.54 2.628a1.77 1.77 0 0 0-.524-.93 1.718 1.718 0 0 0-.48-.313 1.456 1.456 0 0 0-.597-.122c-.374 0-.69.096-.952.288-.26.192-.477.44-.648.744-.17.304-.3.643-.39 1.017a7.765 7.765 0 0 0-.178 1.11c.154-.19.32-.348.504-.474.182-.126.367-.226.554-.3.187-.075.37-.127.547-.156a3.117 3.117 0 0 1 1.733.196c.37.16.683.38.942.665.26.285.458.62.598 1.005.14.385.21.8.21 1.246 0 .41-.07.8-.207 1.17-.137.37-.334.693-.59.97-.258.277-.57.496-.94.658a3.08 3.08 0 0 1-1.25.244 3.36 3.36 0 0 1-1.375-.274 2.802 2.802 0 0 1-1.053-.81c-.29-.36-.515-.805-.673-1.34-.157-.532-.236-1.15-.236-1.853 0-.892.08-1.662.24-2.31.16-.65.387-1.185.682-1.606.295-.422.65-.735 1.064-.94a3.097 3.097 0 0 1 1.392-.307c.42 0 .795.067 1.13.202a2.73 2.73 0 0 1 1.438 1.318c.148.293.25.595.304.905h-1.243zm-1.668 5.953c.238 0 .46-.05.665-.155a1.7 1.7 0 0 0 .535-.422c.15-.178.27-.387.355-.628.085-.24.128-.5.128-.774 0-.265-.04-.52-.12-.762a2.044 2.044 0 0 0-.346-.642 1.66 1.66 0 0 0-.537-.44 1.487 1.487 0 0 0-.693-.162 1.6 1.6 0 0 0-.784.183 1.74 1.74 0 0 0-.55.47 2.02 2.02 0 0 0-.328.638 2.336 2.336 0 0 0-.108.69 2.12 2.12 0 0 0 .544 1.435c.164.178.354.318.567.42.214.1.44.15.673.15z" fill="#398DEE"/></g></svg><svg width="7" height="9" viewBox="0 0 7 9" id="help" x="168" y="24"><title>？</title><path d="M3.632.264c-.888 0-1.584.252-2.1.756-.528.504-.78 1.2-.78 2.088H2.12c0-.504.096-.9.3-1.176.228-.336.6-.492 1.128-.492.408 0 .732.108.96.336.216.228.336.54.336.936 0 .3-.108.588-.324.852l-.144.168c-.78.696-1.248 1.2-1.404 1.524-.168.324-.24.72-.24 1.176V6.6h1.38v-.168c0-.288.06-.54.18-.78a1.86 1.86 0 0 1 .48-.6c.576-.504.924-.828 1.032-.948.288-.384.444-.876.444-1.476 0-.732-.24-1.308-.72-1.728C5.048.468 4.412.264 3.632.264zm-.216 6.924a.925.925 0 0 0-.66.252.842.842 0 0 0-.264.648c0 .264.084.48.264.648.18.168.396.264.66.264s.48-.084.66-.252a.878.878 0 0 0 .276-.66.886.886 0 0 0-.264-.648.954.954 0 0 0-.672-.252z" fill="#FFF" fill-rule="evenodd"/></svg><svg width="24" height="24" viewBox="0 0 24 24" id="hr"><title>Group Copy 21</title><g transform="translate(-514 -270)" fill="none" fill-rule="evenodd"><path d="M520 281h13v2h-13z" fill="#959FB0"/></g></svg><svg width="24" height="24" viewBox="0 0 24 24" id="hr_hover" x="120" y="24"><title>Group Copy 21</title><g transform="translate(-514 -329)" fill="none" fill-rule="evenodd"><path d="M520 340h13v2h-13z" fill="#398DEE"/></g></svg><svg width="24" height="24" viewBox="0 0 24 24" id="image" x="120" y="48"><title>Group Copy 29</title><g transform="translate(-692 -270)" fill="none" fill-rule="evenodd"><g transform="translate(698 277)" fill="#959FB0"><path d="M1 .995v8.01C1 8.995 1.004 9 1 9h11v.005-8.01c0 .01-.004.005 0 .005H1V.995zm-1 0C0 .445.447 0 1 0h11c.553 0 1 .456 1 .995v8.01c0 .55-.447.995-1 .995H1c-.553 0-1-.456-1-.995V.995z"/><circle cx="4" cy="3" r="1"/><path d="M2.998 8c-.55 0-.69-.32-.304-.723l2.212-2.304c.383-.4.96-.354 1.283.096L7.4 6.75l1.364-2.842c.24-.502.59-.482.775.032l1.12 3.12c.188.52-.106.94-.658.94H2.998z"/></g></g></svg><svg width="24" height="24" viewBox="0 0 24 24" id="image_hover" x="120" y="72"><title>Group Copy 29</title><g transform="translate(-692 -329)" fill="none" fill-rule="evenodd"><g transform="translate(698 336)" fill="#398DEE"><path d="M1 .995v8.01C1 8.995 1.004 9 1 9h11v.005-8.01c0 .01-.004.005 0 .005H1V.995zm-1 0C0 .445.447 0 1 0h11c.553 0 1 .456 1 .995v8.01c0 .55-.447.995-1 .995H1c-.553 0-1-.456-1-.995V.995z"/><circle cx="4" cy="3" r="1"/><path d="M2.998 8c-.55 0-.69-.32-.304-.723l2.212-2.304c.383-.4.96-.354 1.283.096L7.4 6.75l1.364-2.842c.24-.502.59-.482.775.032l1.12 3.12c.188.52-.106.94-.658.94H2.998z"/></g></g></svg><svg width="24" height="24" viewBox="0 0 24 24" id="italic" x="120" y="96"><title>Group Copy 9</title><g transform="translate(-254 -329)" fill="none" fill-rule="evenodd"><g transform="translate(262 335)" fill="#959FB2"><path d="M2 1h6v1H2zM0 10h6v1H0z"/><path d="M4.052 1.943L6.26 1.43 3.947 10.06l-2.207.51 2.312-8.63z"/></g></g></svg><svg width="24" height="24" viewBox="0 0 24 24" id="italic_hover" y="120"><title>Group Copy 9</title><g transform="translate(-254 -329)" fill="none" fill-rule="evenodd"><g transform="translate(262 335)" fill="#398DEE"><path d="M2 1h6v1H2zM0 10h6v1H0z"/><path d="M4.052 1.943L6.26 1.43 3.947 10.06l-2.207.51 2.312-8.63z"/></g></g></svg><svg width="24" height="24" viewBox="0 0 24 24" id="link" x="24" y="120"><title>Group Copy 28</title><g transform="translate(-668 -270)" fill="none" fill-rule="evenodd"><path d="M686.15 285.83h-3.475c-.853 0-1.544-.69-1.544-1.543v-.386h1.16c0 .427.345.773.77.773h2.703a.772.772 0 0 0 .772-.772v-2.7a.772.772 0 0 0-.772-.773h-2.702a.772.772 0 0 0-.77.772h-1.16v-.387c0-.852.693-1.544 1.545-1.544h3.474c.85 0 1.543.69 1.543 1.544v3.473c0 .852-.692 1.544-1.544 1.544zm-9.825-3.74h8.202v1.025h-8.202v-1.025zm2.21-.89a.772.772 0 0 0-.773-.773h-2.7a.772.772 0 0 0-.773.772v2.7c0 .427.345.772.77.773h2.703a.772.772 0 0 0 .77-.772h1.16v.387c0 .853-.692 1.544-1.544 1.544h-3.475c-.853 0-1.544-.69-1.544-1.543v-3.474c0-.852.692-1.543 1.545-1.543h3.473c.853 0 1.544.69 1.544 1.544v.386h-1.158z" fill="#959FB0"/></g></svg><svg width="24" height="24" viewBox="0 0 24 24" id="link_hover" x="48" y="120"><title>Group Copy 28</title><g transform="translate(-668 -329)" fill="none" fill-rule="evenodd"><path d="M686.15 344.83h-3.475c-.853 0-1.544-.69-1.544-1.543v-.386h1.16c0 .427.345.773.77.773h2.703a.772.772 0 0 0 .772-.772v-2.7a.772.772 0 0 0-.772-.773h-2.702a.772.772 0 0 0-.77.772h-1.16v-.387c0-.852.693-1.544 1.545-1.544h3.474c.85 0 1.543.69 1.543 1.544v3.473c0 .852-.692 1.544-1.544 1.544zm-9.825-3.74h8.202v1.025h-8.202v-1.025zm2.21-.89a.772.772 0 0 0-.773-.773h-2.7a.772.772 0 0 0-.773.772v2.7c0 .427.345.772.77.773h2.703a.772.772 0 0 0 .77-.772h1.16v.387c0 .853-.692 1.544-1.544 1.544h-3.475c-.853 0-1.544-.69-1.544-1.543v-3.474c0-.852.692-1.543 1.545-1.543h3.473c.853 0 1.544.69 1.544 1.544v.386h-1.158z" fill="#398DEE"/></g></svg><svg width="24" height="24" viewBox="0 0 24 24" id="ol" x="72" y="120"><title>Slice 1</title><g transform="translate(6 6)" fill="none" fill-rule="evenodd"><g transform="rotate(180 6.5 5.5)" fill="#959FB0"><path d="M0 8h8.965v1H0zM0 0h8.965v1H0zM0 4h8.965v1H0z"/></g><path d="M2.805 7.5V8H.285v-.68c0-.35.064-.584.19-.7.126-.115.426-.215.9-.3.392-.07.624-.134.697-.19.072-.06.108-.208.108-.45 0-.23-.036-.377-.108-.44-.073-.06-.245-.092-.517-.092-.28 0-.456.032-.53.094-.073.063-.11.216-.11.458v.142h-.62v-.14c0-.418.087-.7.26-.844.172-.145.506-.217 1.003-.217.485 0 .814.074.987.22.174.147.26.425.26.835 0 .388-.066.647-.198.778-.13.13-.435.24-.91.328-.392.073-.62.134-.684.183-.063.05-.095.192-.095.426v.09h1.887zM2.21.667V4h-.633V1.22l-.867.86-.376-.41L1.41.668h.8zM1.292 11.042v-.49l.107.002c.354 0 .57-.02.647-.063.077-.042.116-.16.116-.358 0-.22-.035-.355-.104-.407-.07-.05-.253-.077-.55-.077-.267 0-.437.03-.507.085-.07.056-.105.193-.105.41v.1h-.61v-.126c0-.39.082-.65.247-.78.164-.13.49-.196.974-.196.487 0 .822.062 1.005.186.182.124.273.353.273.686 0 .46-.185.72-.554.777v.016c.402.044.603.286.603.727 0 .392-.09.656-.266.79-.177.136-.522.204-1.037.204-.504 0-.847-.068-1.03-.203-.18-.135-.27-.39-.27-.766v-.186h.62l.006.132c0 .23.038.373.115.43.078.057.272.085.583.085.284 0 .465-.032.54-.094.076-.062.114-.21.114-.444 0-.18-.035-.297-.104-.354-.07-.057-.213-.086-.43-.086h-.385z" fill="#398DEE"/></g></svg><svg width="24" height="24" viewBox="0 0 24 24" id="ol_hover" x="96" y="120"><title>Slice 2</title><g transform="translate(6 6)" fill="#398DEE" fill-rule="evenodd"><g transform="rotate(180 6.5 5.5)"><path d="M0 8h8.965v1H0zM0 0h8.965v1H0zM0 4h8.965v1H0z"/></g><path d="M2.805 7.5V8H.285v-.68c0-.35.064-.584.19-.7.126-.115.426-.215.9-.3.392-.07.624-.134.697-.19.072-.06.108-.208.108-.45 0-.23-.036-.377-.108-.44-.073-.06-.245-.092-.517-.092-.28 0-.456.032-.53.094-.073.063-.11.216-.11.458v.142h-.62v-.14c0-.418.087-.7.26-.844.172-.145.506-.217 1.003-.217.485 0 .814.074.987.22.174.147.26.425.26.835 0 .388-.066.647-.198.778-.13.13-.435.24-.91.328-.392.073-.62.134-.684.183-.063.05-.095.192-.095.426v.09h1.887zM2.21.667V4h-.633V1.22l-.867.86-.376-.41L1.41.668h.8zM1.292 11.042v-.49l.107.002c.354 0 .57-.02.647-.063.077-.042.116-.16.116-.358 0-.22-.035-.355-.104-.407-.07-.05-.253-.077-.55-.077-.267 0-.437.03-.507.085-.07.056-.105.193-.105.41v.1h-.61v-.126c0-.39.082-.65.247-.78.164-.13.49-.196.974-.196.487 0 .822.062 1.005.186.182.124.273.353.273.686 0 .46-.185.72-.554.777v.016c.402.044.603.286.603.727 0 .392-.09.656-.266.79-.177.136-.522.204-1.037.204-.504 0-.847-.068-1.03-.203-.18-.135-.27-.39-.27-.766v-.186h.62l.006.132c0 .23.038.373.115.43.078.057.272.085.583.085.284 0 .465-.032.54-.094.076-.062.114-.21.114-.444 0-.18-.035-.297-.104-.354-.07-.057-.213-.086-.43-.086h-.385z"/></g></svg><svg width="24" height="24" viewBox="0 0 24 24" id="pencil" x="120" y="120"><title>Group Copy 12</title><g transform="translate(-326 -270)" fill="none" fill-rule="evenodd"><g transform="translate(333 277)"><g fill="#959FB1"><path d="M10 3.322L6.683.027 6 .704 9.317 4 10 3.322zm-2.777.872L8 4.97 4.974 7.992 2.796 5.966l2.04-1.976-.183-.188-2.096 2.03L2 5.02 5.026 2l.776.775 1.42 1.42zM1.5 6L1 8.19l.81.81L4 8.5 1.5 6zM1 9.68L0 10l.32-1 .68.68z"/></g><path fill="#FFCF00" d="M0 10h10v2H0z"/></g></g></svg><svg width="24" height="24" viewBox="0 0 24 24" id="pencil_hover" x="144"><title>Group Copy 12</title><g transform="translate(-326 -329)" fill="none" fill-rule="evenodd"><g transform="translate(333 336)"><path d="M10 3.322L6.683.027 6 .704 9.317 4 10 3.322zm-2.777.872L8 4.97 4.974 7.992 2.796 5.966l2.04-1.976-.183-.188-2.096 2.03L2 5.02 5.026 2l.776.775 1.42 1.42zM1.5 6L1 8.19l.81.81L4 8.5 1.5 6z" fill="#398DEE"/><path d="M1 9.68L0 10l.32-1 .68.68z" fill="#959FB1"/><path fill="#FFCF00" d="M0 10h10v2H0z"/></g></g></svg><svg width="24" height="24" viewBox="0 0 24 24" id="quote" x="144" y="24"><title>Group Copy 22</title><g transform="translate(-538 -270)" fill="none" fill-rule="evenodd"><g transform="translate(544 277)" fill="#959FB0"><path d="M0 5h5v5H0z"/><path d="M5 .5V0H2.5A2.5 2.5 0 0 0 0 2.51v2.98C0 6.89 1.12 8 2.5 8A2.5 2.5 0 0 0 5 5.49H4A1.5 1.5 0 0 1 2.5 7C1.668 7 1 6.332 1 5.49V2.51A1.5 1.5 0 0 1 2.5 1H5V.5z"/><g transform="translate(7)"><path d="M0 5h5v5H0z"/><path d="M5 .5V0H2.5A2.5 2.5 0 0 0 0 2.51v2.98C0 6.89 1.12 8 2.5 8A2.5 2.5 0 0 0 5 5.49H4A1.5 1.5 0 0 1 2.5 7C1.668 7 1 6.332 1 5.49V2.51A1.5 1.5 0 0 1 2.5 1H5V.5z"/></g></g></g></svg><svg width="24" height="24" viewBox="0 0 24 24" id="quote_hover" x="144" y="48"><title>Group Copy 22</title><g transform="translate(-538 -329)" fill="none" fill-rule="evenodd"><g transform="translate(544 336)" fill="#398DEE"><path d="M0 5h5v5H0z"/><path d="M5 .5V0H2.5A2.5 2.5 0 0 0 0 2.51v2.98C0 6.89 1.12 8 2.5 8A2.5 2.5 0 0 0 5 5.49H4A1.5 1.5 0 0 1 2.5 7C1.668 7 1 6.332 1 5.49V2.51A1.5 1.5 0 0 1 2.5 1H5V.5z"/><g transform="translate(7)"><path d="M0 5h5v5H0z"/><path d="M5 .5V0H2.5A2.5 2.5 0 0 0 0 2.51v2.98C0 6.89 1.12 8 2.5 8A2.5 2.5 0 0 0 5 5.49H4A1.5 1.5 0 0 1 2.5 7C1.668 7 1 6.332 1 5.49V2.51A1.5 1.5 0 0 1 2.5 1H5V.5z"/></g></g></g></svg><svg width="24" height="24" viewBox="0 0 24 24" id="seq" x="144" y="72"><title>Group Copy 35</title><g transform="translate(-822 -270)" fill="none" fill-rule="evenodd"><g transform="translate(828 277)" fill="#959FB0"><g transform="rotate(-180 6.5 2.5)"><path d="M0 2h11v1H0z"/><path d="M9.667 5V0L13 2.5 9.667 5z"/></g><g transform="translate(0 5)"><path d="M0 2h11v1H0z"/><path d="M9.667 5V0L13 2.5 9.667 5z"/></g></g></g></svg><svg width="24" height="24" viewBox="0 0 24 24" id="seq_hover" x="144" y="96"><title>Group Copy 35</title><g transform="translate(-822 -329)" fill="none" fill-rule="evenodd"><g transform="translate(828 336)" fill="#398DEE"><g transform="rotate(-180 6.5 2.5)"><path d="M0 2h11v1H0z"/><path d="M9.667 5V0L13 2.5 9.667 5z"/></g><g transform="translate(0 5)"><path d="M0 2h11v1H0z"/><path d="M9.667 5V0L13 2.5 9.667 5z"/></g></g></g></svg><svg width="24" height="24" viewBox="0 0 24 24" id="strikethrough" x="144" y="120"><title>Group Copy 10</title><g transform="translate(-278 -270)" fill="none" fill-rule="evenodd"><g transform="translate(284 276)" fill="#959FB2"><path d="M0 6h12v1H0z"/><path d="M9.28 6a2.738 2.738 0 0 0-.277-.208 3.723 3.723 0 0 0-.987-.47 9.515 9.515 0 0 0-.777-.202c-.626-.16-1.133-.29-1.52-.392a5.634 5.634 0 0 1-.91-.308c-.22-.103-.366-.215-.44-.336a.898.898 0 0 1-.113-.476.94.94 0 0 1 .14-.532c.093-.14.212-.257.357-.35.145-.093.306-.16.483-.196.177-.037.355-.056.532-.056.27 0 .52.023.748.07.23.047.432.126.61.238.176.112.32.266.426.462.107.196.17.443.19.742H9.87c0-.58-.11-1.07-.328-1.477a2.868 2.868 0 0 0-.89-1.002c-.372-.26-.8-.45-1.28-.567A6.36 6.36 0 0 0 5.867.767c-.448 0-.896.06-1.344.182-.448.12-.85.308-1.204.56a2.98 2.98 0 0 0-.862.945c-.22.378-.33.824-.33 1.337 0 .457.087.847.26 1.17.173.32.4.59.68.804.11.085.226.164.35.236H9.28zm.927 2v.032c0 .457-.09.882-.266 1.274-.176.392-.44.73-.79 1.015-.35.286-.784.507-1.302.666-.518.16-1.118.238-1.8.238-.55 0-1.084-.068-1.602-.203a4.032 4.032 0 0 1-1.372-.636 3.147 3.147 0 0 1-.945-1.106c-.234-.448-.346-.98-.337-1.596H3.92c0 .336.062.62.183.854.12.233.282.422.483.567.2.145.436.252.707.322.27.07.55.105.84.105.196 0 .406-.016.63-.05.224-.032.434-.095.63-.188s.36-.222.49-.385.196-.37.196-.623A1.05 1.05 0 0 0 8.04 8h2.165z"/></g></g></svg><svg width="24" height="24" viewBox="0 0 24 24" id="strikethrough_hover" y="144"><title>Group Copy 10</title><g transform="translate(-278 -329)" fill="none" fill-rule="evenodd"><g transform="translate(284 335)" fill="#398DEE"><path d="M0 6h12v1H0z"/><path d="M9.28 6a2.738 2.738 0 0 0-.277-.208 3.723 3.723 0 0 0-.987-.47 9.515 9.515 0 0 0-.777-.202c-.626-.16-1.133-.29-1.52-.392a5.634 5.634 0 0 1-.91-.308c-.22-.103-.366-.215-.44-.336a.898.898 0 0 1-.113-.476.94.94 0 0 1 .14-.532c.093-.14.212-.257.357-.35.145-.093.306-.16.483-.196.177-.037.355-.056.532-.056.27 0 .52.023.748.07.23.047.432.126.61.238.176.112.32.266.426.462.107.196.17.443.19.742H9.87c0-.58-.11-1.07-.328-1.477a2.868 2.868 0 0 0-.89-1.002c-.372-.26-.8-.45-1.28-.567A6.36 6.36 0 0 0 5.867.767c-.448 0-.896.06-1.344.182-.448.12-.85.308-1.204.56a2.98 2.98 0 0 0-.862.945c-.22.378-.33.824-.33 1.337 0 .457.087.847.26 1.17.173.32.4.59.68.804.11.085.226.164.35.236H9.28zm.927 2v.032c0 .457-.09.882-.266 1.274-.176.392-.44.73-.79 1.015-.35.286-.784.507-1.302.666-.518.16-1.118.238-1.8.238-.55 0-1.084-.068-1.602-.203a4.032 4.032 0 0 1-1.372-.636 3.147 3.147 0 0 1-.945-1.106c-.234-.448-.346-.98-.337-1.596H3.92c0 .336.062.62.183.854.12.233.282.422.483.567.2.145.436.252.707.322.27.07.55.105.84.105.196 0 .406-.016.63-.05.224-.032.434-.095.63-.188s.36-.222.49-.385.196-.37.196-.623A1.05 1.05 0 0 0 8.04 8h2.165z"/></g></g></svg><svg width="24" height="24" viewBox="0 0 24 24" id="table" x="24" y="144"><title>Group Copy 31</title><g transform="translate(-740 -270)" fill="none" fill-rule="evenodd"><g transform="translate(746 277)"><path fill="#959FB2" d="M4 1h1v8H4zM8 1h1v8H8z"/><path fill="#959FB2" d="M1 3h11v1H1zM1 6h11v1H1z"/><path d="M0 1h1v8H0h13-1V1h1H0zm0-1h13v10H0V0z" fill="#959FB2"/><path fill="#E4F2FF" d="M1 7h3v2H1zM5 7h3v2H5zM9 7h3v2H9zM9 4h3v2H9zM9 1h3v2H9z"/></g></g></svg><svg width="24" height="24" viewBox="0 0 24 24" id="table_hover" x="48" y="144"><title>Group Copy 31</title><g transform="translate(-740 -329)" fill="none" fill-rule="evenodd"><g transform="translate(746 336)"><path fill="#959FB2" d="M4 1h1v8H4zM8 1h1v8H8z"/><path fill="#959FB2" d="M1 3h11v1H1zM1 6h11v1H1z"/><path d="M0 1h1v8H0h13-1V1h1H0zm13-1v10H0V0h13z" fill="#959FB2"/><path fill="#398DEE" d="M1 7h3v2H1zM5 7h3v2H5zM9 7h3v2H9zM9 4h3v2H9zM9 1h3v2H9z"/></g></g></svg><svg width="24" height="24" viewBox="0 0 24 24" id="ul" x="72" y="144"><title>Group Copy 23</title><g transform="translate(-562 -270)" fill="none" fill-rule="evenodd"><g transform="translate(568 277)"><g transform="rotate(-180 6.5 5)" fill="#959FB0"><path d="M0 8h8.965v1H0zM0 0h8.965v1H0zM0 4h8.965v1H0z"/></g><path fill="#398DEE" d="M1 0h1v3H1z"/><path fill="#398DEE" d="M0 2V1h3v1zM0 6V5h3v1zM0 10V9h3v1z"/><path fill="#398DEE" d="M1 4h1v3H1zM1 8h1v3H1z"/></g></g></svg><svg width="24" height="24" viewBox="0 0 24 24" id="ul_hover" x="96" y="144"><title>Group Copy 23</title><g transform="translate(-562 -329)" fill="none" fill-rule="evenodd"><g transform="translate(568 336)" fill="#398DEE"><g transform="rotate(-180 6.5 5)"><path d="M0 8h8.965v1H0zM0 0h8.965v1H0zM0 4h8.965v1H0z"/></g><path d="M1 0h1v3H1z"/><path d="M0 2V1h3v1zM0 6V5h3v1zM0 10V9h3v1z"/><path d="M1 4h1v3H1zM1 8h1v3H1z"/></g></g></svg><svg width="24" height="24" viewBox="0 0 24 24" id="unchecked" x="120" y="144"><title>Group Copy 25</title><g transform="translate(-610 -270)" fill="none" fill-rule="evenodd"><path d="M618 277.995v8.01c0-.008.003-.005-.005-.005h8.01c-.008 0-.005-.003-.005.005v-8.01c0 .008-.003.005.005.005h-8.01c.008 0 .005.003.005-.005zm-1 0c0-.55.456-.995.995-.995h8.01c.55 0 .995.456.995.995v8.01c0 .55-.456.995-.995.995h-8.01c-.55 0-.995-.456-.995-.995v-8.01z" fill="#959FB0"/></g></svg><svg width="24" height="24" viewBox="0 0 24 24" id="unchecked_hover" x="144" y="144"><title>Group Copy 25</title><g transform="translate(-610 -329)" fill="none" fill-rule="evenodd"><path d="M618 336.995v8.01c0-.008.003-.005-.005-.005h8.01c-.008 0-.005-.003-.005.005v-8.01c0 .008-.003.005.005.005h-8.01c.008 0 .005.003.005-.005zm-1 0c0-.55.456-.995.995-.995h8.01c.55 0 .995.456.995.995v8.01c0 .55-.456.995-.995.995h-8.01c-.55 0-.995-.456-.995-.995v-8.01z" fill="#398DEE"/></g></svg><svg width="24" height="24" viewBox="0 0 24 24" id="underline" x="96" y="96"><title>Group Copy 11</title><g transform="translate(-302 -270)" fill="none" fill-rule="evenodd"><g transform="translate(309 277)" fill="#959FB2"><path d="M7 .394v4.718c0 .64-.518 1.414-1.156 1.414H4.156C3.518 6.526 3 5.75 3 5.112V.394H1V5.32a2.698 2.698 0 0 0 2.698 2.697h2.604A2.698 2.698 0 0 0 9 5.32V.393H7zM10 10H0V9h10v1z"/></g></g></svg><svg width="24" height="24" viewBox="0 0 24 24" id="underline_hover" x="168"><title>Group Copy 11</title><g transform="translate(-302 -329)" fill="none" fill-rule="evenodd"><g transform="translate(309 336)" fill="#398DEE"><path d="M7 .394v4.718c0 .64-.518 1.414-1.156 1.414H4.156C3.518 6.526 3 5.75 3 5.112V.394H1V5.32a2.698 2.698 0 0 0 2.698 2.697h2.604A2.698 2.698 0 0 0 9 5.32V.393H7zM10 10H0V9h10v1z"/></g></g></svg></svg>